<?xml version="1.0" encoding="UTF-8" standalone="no"?>
<!-- Created with Inkscape (http://www.inkscape.org/) -->

<svg
   xmlns:dc="http://purl.org/dc/elements/1.1/"
   xmlns:cc="http://creativecommons.org/ns#"
   xmlns:rdf="http://www.w3.org/1999/02/22-rdf-syntax-ns#"
   xmlns:svg="http://www.w3.org/2000/svg"
   xmlns="http://www.w3.org/2000/svg"
   xmlns:sodipodi="http://sodipodi.sourceforge.net/DTD/sodipodi-0.dtd"
   xmlns:inkscape="http://www.inkscape.org/namespaces/inkscape"
   width="210mm"
   height="297mm"
   viewBox="0 0 210 297"
   version="1.1"
   id="svg8"
   inkscape:version="0.92.3 (2405546, 2018-03-11)"
   sodipodi:docname="drawing.svg">
  <defs
     id="defs2">
    <inkscape:path-effect
       effect="skeletal"
       id="path-effect5062"
       is_visible="true"
       pattern="m 271.58356,-33.772955 a 33.033436,40.548534 0 0 0 -12.00012,2.772578 33.033436,40.548534 0 0 0 12.88699,3.214567 33.033436,40.548534 0 0 0 12.00027,-2.772578 33.033436,40.548534 0 0 0 -12.88714,-3.214567 z"
       copytype="single_stretched"
       prop_scale="0.26458333"
       scale_y_rel="false"
       spacing="0"
       normal_offset="0"
       tang_offset="0"
       prop_units="false"
       vertical_pattern="false"
       fuse_tolerance="0" />
    <inkscape:path-effect
       effect="skeletal"
       id="path-effect5052"
       is_visible="true"
       pattern="m 271.58356,-33.772955 a 33.033436,40.548534 0 0 0 -12.00012,2.772578 33.033436,40.548534 0 0 0 12.88699,3.214567 33.033436,40.548534 0 0 0 12.00027,-2.772578 33.033436,40.548534 0 0 0 -12.88714,-3.214567 z"
       copytype="single_stretched"
       prop_scale="0.26458333"
       scale_y_rel="false"
       spacing="0"
       normal_offset="0"
       tang_offset="0"
       prop_units="false"
       vertical_pattern="false"
       fuse_tolerance="0" />
    <inkscape:path-effect
       effect="skeletal"
       id="path-effect5042"
       is_visible="true"
       pattern="m 271.58356,-33.772955 a 33.033436,40.548534 0 0 0 -12.00012,2.772578 33.033436,40.548534 0 0 0 12.88699,3.214567 33.033436,40.548534 0 0 0 12.00027,-2.772578 33.033436,40.548534 0 0 0 -12.88714,-3.214567 z"
       copytype="single_stretched"
       prop_scale="0.26458333"
       scale_y_rel="false"
       spacing="0"
       normal_offset="0"
       tang_offset="0"
       prop_units="false"
       vertical_pattern="false"
       fuse_tolerance="0" />
    <inkscape:path-effect
       effect="skeletal"
       id="path-effect5022"
       is_visible="true"
       pattern="m 271.58356,-33.772955 a 33.033436,40.548534 0 0 0 -12.00012,2.772578 33.033436,40.548534 0 0 0 12.88699,3.214567 33.033436,40.548534 0 0 0 12.00027,-2.772578 33.033436,40.548534 0 0 0 -12.88714,-3.214567 z"
       copytype="single_stretched"
       prop_scale="0.26458333"
       scale_y_rel="false"
       spacing="0"
       normal_offset="0"
       tang_offset="0"
       prop_units="false"
       vertical_pattern="false"
       fuse_tolerance="0" />
    <inkscape:path-effect
       effect="skeletal"
       id="path-effect5012"
       is_visible="true"
       pattern="m 271.58356,-33.772955 a 33.033436,40.548534 0 0 0 -12.00012,2.772578 33.033436,40.548534 0 0 0 12.88699,3.214567 33.033436,40.548534 0 0 0 12.00027,-2.772578 33.033436,40.548534 0 0 0 -12.88714,-3.214567 z"
       copytype="single_stretched"
       prop_scale="0.26458333"
       scale_y_rel="false"
       spacing="0"
       normal_offset="0"
       tang_offset="0"
       prop_units="false"
       vertical_pattern="false"
       fuse_tolerance="0" />
    <inkscape:path-effect
       effect="skeletal"
       id="path-effect5002"
       is_visible="true"
       pattern="m 271.58356,-33.772955 a 33.033436,40.548534 0 0 0 -12.00012,2.772578 33.033436,40.548534 0 0 0 12.88699,3.214567 33.033436,40.548534 0 0 0 12.00027,-2.772578 33.033436,40.548534 0 0 0 -12.88714,-3.214567 z"
       copytype="single_stretched"
       prop_scale="0.26458333"
       scale_y_rel="false"
       spacing="0"
       normal_offset="0"
       tang_offset="0"
       prop_units="false"
       vertical_pattern="false"
       fuse_tolerance="0" />
    <inkscape:path-effect
       effect="skeletal"
       id="path-effect4992"
       is_visible="true"
       pattern="m 271.58356,-33.772955 a 33.033436,40.548534 0 0 0 -12.00012,2.772578 33.033436,40.548534 0 0 0 12.88699,3.214567 33.033436,40.548534 0 0 0 12.00027,-2.772578 33.033436,40.548534 0 0 0 -12.88714,-3.214567 z"
       copytype="single_stretched"
       prop_scale="0.26458333"
       scale_y_rel="false"
       spacing="0"
       normal_offset="0"
       tang_offset="0"
       prop_units="false"
       vertical_pattern="false"
       fuse_tolerance="0" />
    <inkscape:path-effect
       effect="skeletal"
       id="path-effect4982"
       is_visible="true"
       pattern="m 271.58356,-33.772955 a 33.033436,40.548534 0 0 0 -12.00012,2.772578 33.033436,40.548534 0 0 0 12.88699,3.214567 33.033436,40.548534 0 0 0 12.00027,-2.772578 33.033436,40.548534 0 0 0 -12.88714,-3.214567 z"
       copytype="single_stretched"
       prop_scale="0.26458333"
       scale_y_rel="false"
       spacing="0"
       normal_offset="0"
       tang_offset="0"
       prop_units="false"
       vertical_pattern="false"
       fuse_tolerance="0" />
    <inkscape:path-effect
       effect="skeletal"
       id="path-effect4972"
       is_visible="true"
       pattern="m 274.22941,-33.772955 a 33.033436,40.548534 0 0 0 -12.00012,2.772578 33.033436,40.548534 0 0 0 12.88699,3.214567 33.033436,40.548534 0 0 0 12.00027,-2.772578 33.033436,40.548534 0 0 0 -12.88714,-3.214567 z"
       copytype="single_stretched"
       prop_scale="0.63115501"
       scale_y_rel="false"
       spacing="0"
       normal_offset="0"
       tang_offset="0"
       prop_units="false"
       vertical_pattern="false"
       fuse_tolerance="0" />
    <inkscape:path-effect
       effect="skeletal"
       id="path-effect4962"
       is_visible="true"
       pattern="m 271.58356,-33.772955 a 33.033436,40.548534 0 0 0 -12.00012,2.772578 33.033436,40.548534 0 0 0 12.88699,3.214567 33.033436,40.548534 0 0 0 12.00027,-2.772578 33.033436,40.548534 0 0 0 -12.88714,-3.214567 z"
       copytype="single_stretched"
       prop_scale="0.29347837"
       scale_y_rel="false"
       spacing="0"
       normal_offset="0"
       tang_offset="0"
       prop_units="false"
       vertical_pattern="false"
       fuse_tolerance="0" />
    <inkscape:path-effect
       effect="skeletal"
       id="path-effect4942"
       is_visible="true"
       pattern="m 271.58356,-33.772955 a 33.033436,40.548534 0 0 0 -12.00012,2.772578 33.033436,40.548534 0 0 0 12.88699,3.214567 33.033436,40.548534 0 0 0 12.00027,-2.772578 33.033436,40.548534 0 0 0 -12.88714,-3.214567 z"
       copytype="single_stretched"
       prop_scale="1.0863691"
       scale_y_rel="false"
       spacing="0"
       normal_offset="0"
       tang_offset="0"
       prop_units="false"
       vertical_pattern="false"
       fuse_tolerance="0" />
    <inkscape:path-effect
       effect="skeletal"
       id="path-effect4932"
       is_visible="true"
       pattern="m 271.58356,-33.772955 a 33.033436,40.548534 0 0 0 -12.00012,2.772578 33.033436,40.548534 0 0 0 12.88699,3.214567 33.033436,40.548534 0 0 0 12.00027,-2.772578 33.033436,40.548534 0 0 0 -12.88714,-3.214567 z"
       copytype="single_stretched"
       prop_scale="0.25273963"
       scale_y_rel="false"
       spacing="0"
       normal_offset="0"
       tang_offset="0"
       prop_units="false"
       vertical_pattern="false"
       fuse_tolerance="0" />
    <inkscape:path-effect
       effect="skeletal"
       id="path-effect4922"
       is_visible="true"
       pattern="m 271.58356,-33.772955 a 33.033436,40.548534 0 0 0 -12.00012,2.772578 33.033436,40.548534 0 0 0 12.88699,3.214567 33.033436,40.548534 0 0 0 12.00027,-2.772578 33.033436,40.548534 0 0 0 -12.88714,-3.214567 z"
       copytype="single_stretched"
       prop_scale="0.26458333"
       scale_y_rel="false"
       spacing="0"
       normal_offset="0"
       tang_offset="0"
       prop_units="false"
       vertical_pattern="false"
       fuse_tolerance="0" />
    <inkscape:path-effect
       effect="skeletal"
       id="path-effect4912"
       is_visible="true"
       pattern="m 271.58356,-33.772955 a 33.033436,40.548534 0 0 0 -12.00012,2.772578 33.033436,40.548534 0 0 0 12.88699,3.214567 33.033436,40.548534 0 0 0 12.00027,-2.772578 33.033436,40.548534 0 0 0 -12.88714,-3.214567 z"
       copytype="single_stretched"
       prop_scale="0.26458333"
       scale_y_rel="false"
       spacing="0"
       normal_offset="0"
       tang_offset="0"
       prop_units="false"
       vertical_pattern="false"
       fuse_tolerance="0" />
    <inkscape:path-effect
       effect="skeletal"
       id="path-effect4902"
       is_visible="true"
       pattern="m 271.58356,-33.772955 a 33.033436,40.548534 0 0 0 -12.00012,2.772578 33.033436,40.548534 0 0 0 12.88699,3.214567 33.033436,40.548534 0 0 0 12.00027,-2.772578 33.033436,40.548534 0 0 0 -12.88714,-3.214567 z"
       copytype="single_stretched"
       prop_scale="0.2645783"
       scale_y_rel="false"
       spacing="0"
       normal_offset="0"
       tang_offset="0"
       prop_units="false"
       vertical_pattern="false"
       fuse_tolerance="0" />
    <inkscape:path-effect
       effect="skeletal"
       id="path-effect4892"
       is_visible="true"
       pattern="m 271.58356,-33.772955 a 33.033436,40.548534 0 0 0 -12.00012,2.772578 33.033436,40.548534 0 0 0 12.88699,3.214567 33.033436,40.548534 0 0 0 12.00027,-2.772578 33.033436,40.548534 0 0 0 -12.88714,-3.214567 z"
       copytype="single_stretched"
       prop_scale="0.26384687"
       scale_y_rel="false"
       spacing="0"
       normal_offset="0"
       tang_offset="0"
       prop_units="false"
       vertical_pattern="false"
       fuse_tolerance="0" />
    <inkscape:path-effect
       effect="skeletal"
       id="path-effect4882"
       is_visible="true"
       pattern="m 271.58356,-33.772955 a 33.033436,40.548534 0 0 0 -12.00012,2.772578 33.033436,40.548534 0 0 0 12.88699,3.214567 33.033436,40.548534 0 0 0 12.00027,-2.772578 33.033436,40.548534 0 0 0 -12.88714,-3.214567 z"
       copytype="single_stretched"
       prop_scale="0.31335318"
       scale_y_rel="false"
       spacing="0"
       normal_offset="0"
       tang_offset="0"
       prop_units="false"
       vertical_pattern="false"
       fuse_tolerance="0" />
    <inkscape:path-effect
       effect="skeletal"
       id="path-effect4872"
       is_visible="true"
       pattern="m 271.58356,-33.772955 a 33.033436,40.548534 0 0 0 -12.00012,2.772578 33.033436,40.548534 0 0 0 12.88699,3.214567 33.033436,40.548534 0 0 0 12.00027,-2.772578 33.033436,40.548534 0 0 0 -12.88714,-3.214567 z"
       copytype="single_stretched"
       prop_scale="-1.3717937"
       scale_y_rel="false"
       spacing="0"
       normal_offset="0"
       tang_offset="0"
       prop_units="false"
       vertical_pattern="false"
       fuse_tolerance="0" />
    <inkscape:path-effect
       effect="skeletal"
       id="path-effect4862"
       is_visible="true"
       pattern="m 271.58356,-33.772955 a 33.033436,40.548534 0 0 0 -12.00012,2.772578 33.033436,40.548534 0 0 0 12.88699,3.214567 33.033436,40.548534 0 0 0 12.00027,-2.772578 33.033436,40.548534 0 0 0 -12.88714,-3.214567 z"
       copytype="single_stretched"
       prop_scale="-1.4399461"
       scale_y_rel="false"
       spacing="0"
       normal_offset="0"
       tang_offset="0"
       prop_units="false"
       vertical_pattern="false"
       fuse_tolerance="0" />
    <inkscape:path-effect
       effect="skeletal"
       id="path-effect4852"
       is_visible="true"
       pattern="m 271.58356,-33.772955 a 33.033436,40.548534 0 0 0 -12.00012,2.772578 33.033436,40.548534 0 0 0 12.88699,3.214567 33.033436,40.548534 0 0 0 12.00027,-2.772578 33.033436,40.548534 0 0 0 -12.88714,-3.214567 z"
       copytype="single_stretched"
       prop_scale="-0.94419455"
       scale_y_rel="false"
       spacing="0"
       normal_offset="0"
       tang_offset="0"
       prop_units="false"
       vertical_pattern="false"
       fuse_tolerance="0" />
    <inkscape:path-effect
       effect="skeletal"
       id="path-effect4842"
       is_visible="true"
       pattern="m 271.58356,-33.772955 a 33.033436,40.548534 0 0 0 -12.00012,2.772578 33.033436,40.548534 0 0 0 12.88699,3.214567 33.033436,40.548534 0 0 0 12.00027,-2.772578 33.033436,40.548534 0 0 0 -12.88714,-3.214567 z"
       copytype="single_stretched"
       prop_scale="0.26458333"
       scale_y_rel="false"
       spacing="0"
       normal_offset="0"
       tang_offset="0"
       prop_units="false"
       vertical_pattern="false"
       fuse_tolerance="0" />
    <inkscape:path-effect
       effect="skeletal"
       id="path-effect4832"
       is_visible="true"
       pattern="m 271.58356,-33.772955 a 33.033436,40.548534 0 0 0 -12.00012,2.772578 33.033436,40.548534 0 0 0 12.88699,3.214567 33.033436,40.548534 0 0 0 12.00027,-2.772578 33.033436,40.548534 0 0 0 -12.88714,-3.214567 z"
       copytype="single_stretched"
       prop_scale="0.26458333"
       scale_y_rel="false"
       spacing="0"
       normal_offset="0"
       tang_offset="0"
       prop_units="false"
       vertical_pattern="false"
       fuse_tolerance="0" />
    <inkscape:path-effect
       effect="skeletal"
       id="path-effect4822"
       is_visible="true"
       pattern="m 271.58356,-33.772955 a 33.033436,40.548534 0 0 0 -12.00012,2.772578 33.033436,40.548534 0 0 0 12.88699,3.214567 33.033436,40.548534 0 0 0 12.00027,-2.772578 33.033436,40.548534 0 0 0 -12.88714,-3.214567 z"
       copytype="single_stretched"
       prop_scale="0.26458333"
       scale_y_rel="false"
       spacing="0"
       normal_offset="0"
       tang_offset="0"
       prop_units="false"
       vertical_pattern="false"
       fuse_tolerance="0" />
    <inkscape:path-effect
       effect="skeletal"
       id="path-effect4812"
       is_visible="true"
       pattern="m 271.58356,-33.772955 a 33.033436,40.548534 0 0 0 -12.00012,2.772578 33.033436,40.548534 0 0 0 12.88699,3.214567 33.033436,40.548534 0 0 0 12.00027,-2.772578 33.033436,40.548534 0 0 0 -12.88714,-3.214567 z"
       copytype="single_stretched"
       prop_scale="0.26458333"
       scale_y_rel="false"
       spacing="0"
       normal_offset="0"
       tang_offset="0"
       prop_units="false"
       vertical_pattern="false"
       fuse_tolerance="0" />
    <inkscape:path-effect
       effect="skeletal"
       id="path-effect4802"
       is_visible="true"
       pattern="m 271.58356,-33.772955 a 33.033436,40.548534 0 0 0 -12.00012,2.772578 33.033436,40.548534 0 0 0 12.88699,3.214567 33.033436,40.548534 0 0 0 12.00027,-2.772578 33.033436,40.548534 0 0 0 -12.88714,-3.214567 z"
       copytype="single_stretched"
       prop_scale="0.26458333"
       scale_y_rel="false"
       spacing="0"
       normal_offset="0"
       tang_offset="0"
       prop_units="false"
       vertical_pattern="false"
       fuse_tolerance="0" />
    <inkscape:path-effect
       effect="skeletal"
       id="path-effect4792"
       is_visible="true"
       pattern="m 271.58356,-33.772955 a 33.033436,40.548534 0 0 0 -12.00012,2.772578 33.033436,40.548534 0 0 0 12.88699,3.214567 33.033436,40.548534 0 0 0 12.00027,-2.772578 33.033436,40.548534 0 0 0 -12.88714,-3.214567 z"
       copytype="single_stretched"
       prop_scale="0.26458333"
       scale_y_rel="false"
       spacing="0"
       normal_offset="0"
       tang_offset="0"
       prop_units="false"
       vertical_pattern="false"
       fuse_tolerance="0" />
    <inkscape:path-effect
       effect="skeletal"
       id="path-effect4782"
       is_visible="true"
       pattern="m 271.58356,-33.772955 a 33.033436,40.548534 0 0 0 -12.00012,2.772578 33.033436,40.548534 0 0 0 12.88699,3.214567 33.033436,40.548534 0 0 0 12.00027,-2.772578 33.033436,40.548534 0 0 0 -12.88714,-3.214567 z"
       copytype="single_stretched"
       prop_scale="-0.42879423"
       scale_y_rel="false"
       spacing="0"
       normal_offset="0"
       tang_offset="0"
       prop_units="false"
       vertical_pattern="false"
       fuse_tolerance="0" />
    <inkscape:path-effect
       effect="skeletal"
       id="path-effect4752"
       is_visible="true"
       pattern="m 271.58356,-34.566752 a 33.033436,40.548534 0 0 0 -12.00012,2.772578 33.033436,40.548534 0 0 0 12.88699,3.214567 33.033436,40.548534 0 0 0 12.00027,-2.772578 33.033436,40.548534 0 0 0 -12.88714,-3.214567 z"
       copytype="single_stretched"
       prop_scale="0.58095387"
       scale_y_rel="false"
       spacing="0"
       normal_offset="0"
       tang_offset="0"
       prop_units="false"
       vertical_pattern="false"
       fuse_tolerance="0" />
    <inkscape:path-effect
       effect="skeletal"
       id="path-effect4722"
       is_visible="true"
       pattern="m 271.58356,-33.772955 a 33.033436,40.548534 0 0 0 -12.00012,2.772578 33.033436,40.548534 0 0 0 12.88699,3.214567 33.033436,40.548534 0 0 0 12.00027,-2.772578 33.033436,40.548534 0 0 0 -12.88714,-3.214567 z"
       copytype="single_stretched"
       prop_scale="0.33947622"
       scale_y_rel="false"
       spacing="0"
       normal_offset="0"
       tang_offset="0"
       prop_units="false"
       vertical_pattern="false"
       fuse_tolerance="0" />
    <inkscape:path-effect
       effect="skeletal"
       id="path-effect4692"
       is_visible="true"
       pattern="m 271.58356,-33.772955 a 33.033436,40.548534 0 0 0 -12.00012,2.772578 33.033436,40.548534 0 0 0 12.88699,3.214567 33.033436,40.548534 0 0 0 12.00027,-2.772578 33.033436,40.548534 0 0 0 -12.88714,-3.214567 z"
       copytype="single_stretched"
       prop_scale="0.26458333"
       scale_y_rel="false"
       spacing="0"
       normal_offset="0"
       tang_offset="0"
       prop_units="false"
       vertical_pattern="false"
       fuse_tolerance="0" />
    <inkscape:path-effect
       effect="skeletal"
       id="path-effect4682"
       is_visible="true"
       pattern="m 271.58356,-33.772955 a 33.033436,40.548534 0 0 0 -12.00012,2.772578 33.033436,40.548534 0 0 0 12.88699,3.214567 33.033436,40.548534 0 0 0 12.00027,-2.772578 33.033436,40.548534 0 0 0 -12.88714,-3.214567 z"
       copytype="single_stretched"
       prop_scale="0.47381697"
       scale_y_rel="false"
       spacing="0"
       normal_offset="0"
       tang_offset="0"
       prop_units="false"
       vertical_pattern="false"
       fuse_tolerance="0" />
    <inkscape:path-effect
       effect="skeletal"
       id="path-effect4672"
       is_visible="true"
       pattern="m 271.58356,-33.772955 a 33.033436,40.548534 0 0 0 -12.00012,2.772578 33.033436,40.548534 0 0 0 12.88699,3.214567 33.033436,40.548534 0 0 0 12.00027,-2.772578 33.033436,40.548534 0 0 0 -12.88714,-3.214567 z"
       copytype="single_stretched"
       prop_scale="0.27618704"
       scale_y_rel="false"
       spacing="0"
       normal_offset="0"
       tang_offset="0"
       prop_units="false"
       vertical_pattern="false"
       fuse_tolerance="0" />
    <inkscape:path-effect
       effect="skeletal"
       id="path-effect4662"
       is_visible="true"
       pattern="m 271.58356,-33.772955 a 33.033436,40.548534 0 0 0 -12.00012,2.772578 33.033436,40.548534 0 0 0 12.88699,3.214567 33.033436,40.548534 0 0 0 12.00027,-2.772578 33.033436,40.548534 0 0 0 -12.88714,-3.214567 z"
       copytype="single_stretched"
       prop_scale="0.26458333"
       scale_y_rel="false"
       spacing="0"
       normal_offset="0"
       tang_offset="0"
       prop_units="false"
       vertical_pattern="false"
       fuse_tolerance="0" />
    <inkscape:path-effect
       effect="skeletal"
       id="path-effect4652"
       is_visible="true"
       pattern="m 271.58356,-33.772955 a 33.033436,40.548534 0 0 0 -12.00012,2.772578 33.033436,40.548534 0 0 0 12.88699,3.214567 33.033436,40.548534 0 0 0 12.00027,-2.772578 33.033436,40.548534 0 0 0 -12.88714,-3.214567 z"
       copytype="single_stretched"
       prop_scale="0.26458333"
       scale_y_rel="false"
       spacing="0"
       normal_offset="0"
       tang_offset="0"
       prop_units="false"
       vertical_pattern="false"
       fuse_tolerance="0" />
    <inkscape:path-effect
       effect="skeletal"
       id="path-effect4642"
       is_visible="true"
       pattern="m 271.58356,-33.772955 a 33.033436,40.548534 0 0 0 -12.00012,2.772578 33.033436,40.548534 0 0 0 12.88699,3.214567 33.033436,40.548534 0 0 0 12.00027,-2.772578 33.033436,40.548534 0 0 0 -12.88714,-3.214567 z"
       copytype="single_stretched"
       prop_scale="0.31265181"
       scale_y_rel="false"
       spacing="0"
       normal_offset="0"
       tang_offset="0"
       prop_units="false"
       vertical_pattern="false"
       fuse_tolerance="0" />
    <inkscape:path-effect
       effect="skeletal"
       id="path-effect4632"
       is_visible="true"
       pattern="m 273.17106,-33.243788 a 33.033436,40.548534 0 0 0 -12.00012,2.772578 33.033436,40.548534 0 0 0 12.88699,3.214567 33.033436,40.548534 0 0 0 12.00027,-2.772578 33.033436,40.548534 0 0 0 -12.88714,-3.214567 z"
       copytype="single_stretched"
       prop_scale="0.41091389"
       scale_y_rel="false"
       spacing="0"
       normal_offset="0"
       tang_offset="0"
       prop_units="false"
       vertical_pattern="false"
       fuse_tolerance="0" />
    <inkscape:path-effect
       effect="skeletal"
       id="path-effect4622"
       is_visible="true"
       pattern="m 271.58356,-33.772955 a 33.033436,40.548534 0 0 0 -12.00012,2.772578 33.033436,40.548534 0 0 0 12.88699,3.214567 33.033436,40.548534 0 0 0 12.00027,-2.772578 33.033436,40.548534 0 0 0 -12.88714,-3.214567 z"
       copytype="single_stretched"
       prop_scale="0.26458333"
       scale_y_rel="false"
       spacing="0"
       normal_offset="0"
       tang_offset="0"
       prop_units="false"
       vertical_pattern="false"
       fuse_tolerance="0" />
    <inkscape:path-effect
       effect="skeletal"
       id="path-effect4612"
       is_visible="true"
       pattern="m 270.04374,-33.827675 a 33.033436,40.548534 0 0 0 -12.00012,2.772578 33.033436,40.548534 0 0 0 12.88699,3.214567 33.033436,40.548534 0 0 0 12.00027,-2.772578 33.033436,40.548534 0 0 0 -12.88714,-3.214567 z"
       copytype="single_stretched"
       prop_scale="0.55613338"
       scale_y_rel="false"
       spacing="0"
       normal_offset="0"
       tang_offset="0"
       prop_units="false"
       vertical_pattern="false"
       fuse_tolerance="0" />
    <inkscape:path-effect
       effect="skeletal"
       id="path-effect4592"
       is_visible="true"
       pattern="m 271.58356,-33.772955 a 33.033436,40.548534 0 0 0 -12.00012,2.772578 33.033436,40.548534 0 0 0 12.88699,3.214567 33.033436,40.548534 0 0 0 12.00027,-2.772578 33.033436,40.548534 0 0 0 -12.88714,-3.214567 z"
       copytype="single_stretched"
       prop_scale="0.78482824"
       scale_y_rel="false"
       spacing="0"
       normal_offset="0"
       tang_offset="0"
       prop_units="false"
       vertical_pattern="false"
       fuse_tolerance="0" />
    <inkscape:path-effect
       effect="skeletal"
       id="path-effect4582"
       is_visible="true"
       pattern="m 271.58356,-33.772955 a 33.033436,40.548534 0 0 0 -12.00012,2.772578 33.033436,40.548534 0 0 0 12.88699,3.214567 33.033436,40.548534 0 0 0 12.00027,-2.772578 33.033436,40.548534 0 0 0 -12.88714,-3.214567 z"
       copytype="single_stretched"
       prop_scale="0.9815726"
       scale_y_rel="false"
       spacing="0"
       normal_offset="0"
       tang_offset="0"
       prop_units="false"
       vertical_pattern="false"
       fuse_tolerance="0" />
  </defs>
  <sodipodi:namedview
     id="base"
     pagecolor="#ffffff"
     bordercolor="#666666"
     borderopacity="1.0"
     inkscape:pageopacity="0.0"
     inkscape:pageshadow="2"
     inkscape:zoom="0.5"
     inkscape:cx="78.000014"
     inkscape:cy="618.44128"
     inkscape:document-units="px"
     inkscape:current-layer="layer1"
     showgrid="false"
     inkscape:showpageshadow="false"
     inkscape:window-width="1582"
     inkscape:window-height="1065"
     inkscape:window-x="1706"
     inkscape:window-y="43"
     inkscape:window-maximized="0"
     showguides="false" />
  <metadata
     id="metadata5">
    <rdf:RDF>
      <cc:Work
         rdf:about="">
        <dc:format>image/svg+xml</dc:format>
        <dc:type
           rdf:resource="http://purl.org/dc/dcmitype/StillImage" />
        <dc:title></dc:title>
      </cc:Work>
    </rdf:RDF>
  </metadata>
  <g
     inkscape:label="Layer 1"
     inkscape:groupmode="layer"
     id="layer1">
    <path
       style="opacity:0.50700001;fill:#000000;fill-opacity:1;stroke-width:0.08684269"
       d="m 271.58356,-33.77296 a 33.033436,40.548534 0 0 0 -12.00012,2.772578 33.033436,40.548534 0 0 0 12.88699,3.214567 33.033436,40.548534 0 0 0 12.00027,-2.772578 33.033436,40.548534 0 0 0 -12.88714,-3.214567 z"
       id="path4538"
       inkscape:connector-curvature="0" />
    <path
       style="fill:#000000;stroke:none;stroke-width:0.39881936px;stroke-linecap:butt;stroke-linejoin:miter;stroke-opacity:1"
       d="m -117.35073,123.19296 c -8.32104,1.50361 -15.48194,5.60648 -21.38074,10.42174 7.98538,-1.52069 16.06374,-3.79003 24.00477,-4.89982 0.0691,-0.01 0.13824,-0.0192 0.20737,-0.0288 0,0 0,0 0,0 l 0,0 c 4.00766,-0.47631 7.88084,-0.90218 11.23278,0.23579 l 0,0 c 1.87948,0.58769 3.733748,1.73119 5.06384,3.4191 l 0,0 c 0.425723,0.53915 0.808266,1.12699 1.126293,1.76259 l 0,0 10e-7,0 0,0 c 0.09273,0.18546 0.17991,0.37285 0.25815,0.56481 l 0,0 0,0 0,0 c 0.02109,0.0506 0.04149,0.10094 0.06069,0.15154 1e-6,0 3e-6,0 4e-6,0 0.06162,0.01 0.120544,0.0194 0.176675,0.0296 0.02024,0.004 0.04014,0.007 0.0596,0.0112 1.09e-4,3e-5 2.17e-4,3e-5 3.23e-4,2e-5 -1.06e-4,1e-5 -2.14e-4,1e-5 -3.22e-4,-2e-5 -0.01946,-0.004 -0.03863,-0.008 -0.05741,-0.0114 -0.0521,-0.0105 -0.101429,-0.0212 -0.147933,-0.0321 0,0 -2e-6,0 -2e-6,0 0.0094,-0.0538 0.01736,-0.109 0.02437,-0.16529 l 0,0 0,0 0,0 c 0.02557,-0.21063 0.0392,-0.42623 0.04426,-0.64405 l 0,0 0,-1e-5 0,0 c 0.01732,-0.74706 -0.0673,-1.51839 -0.249773,-2.28603 l 0,0 c -0.590134,-2.45439 -2.231322,-4.7864 -4.60743,-6.35098 l 0,0 c -4.10759,-2.65079 -9.22013,-3.13199 -13.79196,-2.4869 -0.67876,0.0847 -1.35351,0.18802 -2.02356,0.30899 z"
       id="path4574"
       inkscape:connector-curvature="0"
       inkscape:path-effect="#path-effect4582"
       inkscape:original-d="m -138.63789,133.8104 c 40.651887,-19.43808 42.09689,1.0503 42.09689,1.0503"
       sodipodi:nodetypes="cc" />
    <path
       style="fill:#000000;stroke:none;stroke-width:0.38365385px;stroke-linecap:butt;stroke-linejoin:miter;stroke-opacity:1"
       d="m -177.87633,124.57733 c -8.02548,2.58354 -14.31412,7.92188 -19.20194,13.56882 6.66198,-3.25257 13.792,-7.10864 20.80334,-9.15702 0,1e-5 0,0 0,0 0.44548,-0.12433 0.89287,-0.24374 1.33974,-0.35588 3.23925,-0.81339 6.45895,-1.25902 9.38865,-0.48326 2.05647,0.46236 4.07657,1.57631 5.70658,3.18224 0.96984,0.74952 1.79251,1.55249 2.43267,2.42663 0.0245,-0.52242 -0.0313,-1.01244 -0.17412,-1.46758 -0.0436,0.49856 0.008,0.96388 0.14689,1.39857 -0.49602,-1.00009 -0.8042,-2.09547 -0.9608,-3.27113 -1.19913,-2.34161 -3.2611,-4.41247 -5.9443,-5.67018 -4.25135,-1.8814 -9.10104,-1.61526 -13.32982,-0.23704 0,0 0,0 0,0 -0.0691,0.0217 -0.13802,0.0437 -0.20689,0.0658 z"
       id="path4584"
       inkscape:connector-curvature="0"
       inkscape:path-effect="#path-effect4592"
       inkscape:original-d="m -196.97144,138.28278 c 32.79145,-25.63932 39.54264,-4.57843 39.54264,-4.57843 l -0.32148,-1.37354" />
    <path
       style="fill:#000000;stroke:none;stroke-width:0.10650692;stroke-linecap:butt;stroke-linejoin:miter;stroke-miterlimit:4;stroke-dasharray:none;stroke-opacity:1"
       d="m -182.9803,147.92954 c 2.35548,-1.78298 4.88842,-3.22505 7.73759,-3.80614 1.98278,-0.70825 4.21903,-0.84471 6.29737,-0.30993 1.62252,0.40365 3.19443,1.19227 4.6175,2.2054 0.61553,0.52369 1.23377,1.04263 1.85471,1.5569 -0.46235,-0.66131 -0.93608,-1.32715 -1.4206,-1.99683 -1.17909,-1.37273 -2.67195,-2.58801 -4.46167,-3.41954 -2.3151,-1.05868 -5.04445,-1.32877 -7.67523,-0.69297 -3.77428,1.35327 -6.85556,4.38948 -9.2786,7.72945 -0.0161,-0.003 0.53638,0.0956 0.52026,0.0927 5.57264,0.99025 11.17249,1.87825 16.61111,1.75495 l 0,0 c 1.92036,-0.0998 4.22899,-0.0868 6.06177,-1.24029 0,0 0,0 0,0 l 0,0 c 0.33193,-0.14061 0.61899,-0.54482 0.59249,-1.06364 l 0,0 c -0.12283,-0.40245 -0.38031,-0.627 -0.61369,-0.76015 l 0,0 0,0 0,0 c -0.25711,-0.17053 -0.52551,-0.29783 -0.79276,-0.40473 l 0,0 0,0 0,0 c -0.10822,-0.0124 -0.21439,-0.0281 -0.31835,-0.0468 l 0,0 c 0,0 0,0 0,0 -0.0343,0.004 -0.0681,0.007 -0.1014,0.009 -0.009,5.9e-4 -0.0183,0.001 -0.0274,0.002 -0.009,-0.002 -0.01,-9.2e-4 -0.0106,5.3e-4 7.1e-4,-0.001 0.001,-0.003 0.002,-0.004 0.0174,0.004 0.0264,0.003 0.0353,0.003 0,0 0,0 0,0 0.0323,-1.9e-4 0.0639,0.001 0.0947,0.004 0,0 0,0 0,0 l 0,0 c 0.0952,0.0353 0.1856,0.0787 0.27148,0.12982 l 0,0 0,0 0,0 c 0.2276,0.16976 0.44743,0.35323 0.63453,0.55943 l 0,0 1e-5,0 0,0 c 0.16608,0.18713 0.32991,0.39533 0.31369,0.58557 l 0,0 c 0.0236,0.16163 -0.21149,0.2587 -0.404,0.35449 l 0,0 c 0,0 0,0 0,0 -1.75628,0.64847 -3.62361,0.10727 -5.72996,-0.038 l 0,0 c -5.15795,-0.26196 -10.47585,-0.38545 -15.75441,-0.46513 0.31095,-0.25143 0.62567,-0.49842 0.94401,-0.73938 z"
       id="path4604"
       inkscape:connector-curvature="0"
       inkscape:path-effect="#path-effect4612"
       inkscape:original-d="m -162.38331,147.49214 c 0,0 -9.19447,-12.6888 -22.2327,1.43997 31.15015,3.07396 21.22821,-1.39266 21.22821,-1.39266"
       sodipodi:nodetypes="ccc" />
    <path
       style="fill:#000000;stroke:none;stroke-width:0.26458332px;stroke-linecap:butt;stroke-linejoin:miter;stroke-opacity:1"
       d="m -174.31881,157.52314 c 4.09901,-0.09 8.14599,-0.71702 11.86913,-1.48776 -4.16297,-0.25558 -8.35136,-0.13614 -12.77445,-0.0813 -2.85428,0.0356 -5.54726,0.0376 -8.31279,-0.0978 -0.96512,-0.0456 -1.8792,-0.0476 -2.74299,-0.38379 -0.14949,-0.0961 -0.30523,-0.20055 -0.4677,-0.31392 0,0 0,0 0,0 -0.0164,0.009 -0.0329,0.0174 -0.0496,0.0254 0.0167,-0.008 0.0332,-0.0164 0.0495,-0.0253 0,0 0,0 0,0 0.1182,0.13632 0.24478,0.28336 0.37937,0.44057 0.77197,0.54738 1.76215,0.80148 2.72548,1.02995 2.99008,0.70627 6.13337,0.9637 9.32409,0.89392 z"
       id="path4614"
       inkscape:connector-curvature="0"
       inkscape:path-effect="#path-effect4622"
       inkscape:original-d="m -162.45416,155.97708 c -24.07709,1.85209 -24.34167,-0.79375 -24.34167,-0.79375" />
    <path
       style="fill:#000000;stroke:none;stroke-width:0.39865628px;stroke-linecap:butt;stroke-linejoin:miter;stroke-opacity:1"
       d="m -113.9335,138.93012 c -5.68434,1.08463 -10.59308,4.03558 -14.69363,7.22285 5.05356,-1.89096 10.56073,-4.14004 15.97995,-4.95152 0,0 0,0 0,0 0.0969,-0.0134 0.19399,-0.0264 0.29111,-0.039 2.65418,-0.34476 5.32667,-0.38538 7.52156,0.71115 l 0,0 c 1.43042,0.6775 2.67723,1.86796 3.52658,3.30278 l 0,0 c 0.28474,0.48242 0.53077,0.99081 0.7297,1.52059 l 0,0 0,1e-5 0,0 c 0.0585,0.15594 0.11293,0.31287 0.16103,0.47198 l 0,0 0,0 0,0 c 0.013,0.0428 0.0256,0.0855 0.0373,0.12839 0,0 0,0 0,0 0.0269,0.009 0.0524,0.0188 0.0766,0.0285 0.009,0.004 0.0175,0.007 0.026,0.0107 7e-5,3e-5 1.3e-4,4e-5 2e-4,3e-5 -7e-5,1e-5 -1.3e-4,0 -2e-4,-3e-5 -0.008,-0.004 -0.0168,-0.007 -0.0249,-0.0109 -0.0222,-0.01 -0.0431,-0.0198 -0.0627,-0.0299 0,0 0,0 0,0 0.002,-0.0446 0.003,-0.0897 0.004,-0.13515 l 0,0 0,0 0,0 c 0.002,-0.16807 -0.004,-0.33777 -0.016,-0.50818 l 0,0 0,0 0,0 c -0.0394,-0.57883 -0.14263,-1.1647 -0.30779,-1.7444 l 0,0 c -0.49663,-1.74328 -1.60214,-3.41189 -3.25894,-4.55982 l 0,0 c -2.64726,-1.78049 -6.01526,-2.07323 -9.08263,-1.57375 -0.30375,0.0463 -0.60605,0.0983 -0.90682,0.15564 z"
       id="path4624"
       inkscape:connector-curvature="0"
       inkscape:path-effect="#path-effect4632"
       inkscape:original-d="m -128.58238,146.23199 c 26.86693,-15.21757 28.3053,1.10456 28.3053,1.10456"
       sodipodi:nodetypes="cc" />
    <path
       style="fill:#000000;stroke:none;stroke-width:0.39999536px;stroke-linecap:butt;stroke-linejoin:miter;stroke-opacity:1"
       d="m -114.74748,149.93993 c 5.21608,-0.60732 10.0885,-2.40161 14.38813,-4.55711 -4.89685,1.07289 -10.1762,2.29923 -15.40981,2.78397 0,0 -1e-5,0 -1e-5,0 -0.0897,0.008 -0.17943,0.0159 -0.26916,0.0236 -2.82222,0.24176 -5.59585,0.29976 -8.21633,-0.35201 l 0,0 c -1.47008,-0.36907 -2.87788,-0.94044 -4.00232,-1.91126 l 0,0 c -0.3051,-0.26257 -0.58769,-0.54959 -0.82951,-0.87181 l 0,0 0,0 0,0 c -0.0656,-0.0866 -0.12798,-0.17543 -0.18502,-0.26834 0,0 0,0 0,0 l 0,0 c 0,0 0,0 0,0 -0.0346,-0.0182 -0.0664,-0.0375 -0.095,-0.0582 -0.0104,-0.007 -0.0205,-0.0154 -0.0298,-0.0233 -5e-5,-4e-5 -9e-5,-5e-5 -1.2e-4,-4e-5 3e-5,-1e-5 7e-5,0 1.2e-4,4e-5 0.009,0.008 0.0187,0.0161 0.0277,0.0241 0,0 0,0 0,0 0.0249,0.0222 0.0479,0.0451 0.0688,0.0688 0,0 0,0 0,0 l 0,0 c 0,0 0,0 0,0 0.0319,0.10487 0.0714,0.20949 0.11543,0.31369 l 0,0 0,0 0,0 c 0.1611,0.38092 0.38019,0.74535 0.63611,1.08791 l 0,0 c 0.94795,1.26673 2.36325,2.20539 3.91719,2.81777 l 0,0 c 2.83857,1.12577 5.98353,1.29586 9.04014,1.00954 0.28167,-0.0255 0.56282,-0.0547 0.84339,-0.0873 z"
       id="path4634"
       inkscape:connector-curvature="0"
       inkscape:path-effect="#path-effect4642"
       inkscape:original-d="m -100.38273,145.3178 c -25.55894,9.192 -29.01365,-0.61245 -29.01365,-0.61245" />
    <path
       style="fill:#000000;stroke:none;stroke-width:0.26458332px;stroke-linecap:butt;stroke-linejoin:miter;stroke-opacity:1"
       d="m -120.14963,152.98729 c -4.70631,-0.71993 -9.50406,-1.76909 -13.98031,-2.35869 4.49504,1.66436 9.56028,3.3887 14.79123,4.07509 3.37794,0.44301 6.74512,0.44313 9.9886,-0.20663 l 0,0 c 1.12749,-0.20707 2.34856,-0.54456 3.15975,-1.38029 l 0,0 c 0.16226,-0.16662 0.30152,-0.36551 0.37429,-0.58806 l 0,0 0,0 0,0 c 0.019,-0.0604 0.0332,-0.12292 0.0395,-0.18608 0,0 0,0 0,0 l 0,0 c 0,0 0,0 0,0 -0.0141,-0.0168 -0.0276,-0.0335 -0.0409,-0.0501 -0.005,-0.006 -0.0102,-0.013 -0.0155,-0.0194 -1e-4,-1.2e-4 -1.9e-4,-1.8e-4 -2.9e-4,-1.9e-4 1e-4,1e-5 1.9e-4,7e-5 2.9e-4,1.9e-4 0.005,0.006 0.01,0.013 0.0144,0.0193 0.0114,0.0164 0.0206,0.0327 0.0279,0.0488 0,0 0,0 0,0 l 0,0 c 0,0 0,0 0,0 -0.0183,0.0602 -0.0436,0.11564 -0.0726,0.16703 l 0,0 0,0 0,0 c -0.11145,0.19391 -0.27529,0.34207 -0.4519,0.46405 l 0,0 c -0.8962,0.61949 -2.00693,0.66723 -3.13612,0.73655 l 0,0 c -3.55695,0.16848 -7.03545,-0.16098 -10.69825,-0.72154 z"
       id="path4644"
       inkscape:connector-curvature="0"
       inkscape:path-effect="#path-effect4652"
       inkscape:original-d="m -134.14375,150.68542 c 28.31042,6.87916 28.31042,1.5875 28.31042,1.5875" />
    <path
       style="fill:#000000;stroke:none;stroke-width:0.26458332px;stroke-linecap:butt;stroke-linejoin:miter;stroke-opacity:1"
       d="m -160.77699,166.58357 c 0.05,-0.12733 0.1035,-0.25318 0.16048,-0.37716 0,0 0,0 0,0 1.21039,-2.66336 3.66864,-4.92773 5.8685,-7.00622 -2.73529,1.28897 -5.68565,3.16747 -7.28817,6.33065 0,0 0,0 0,0 -0.19904,0.39758 -0.35994,0.81601 -0.47871,1.24745 -0.39493,1.4351 -0.31482,2.98522 0.32404,4.33687 0.68328,1.36975 1.77,2.38683 2.93046,3.10118 0.61102,0.30487 1.21362,0.59267 1.8044,0.86142 0,0 0,0 0,0 0.0113,-0.0197 0.0226,-0.0395 0.0338,-0.0593 -0.0112,0.0198 -0.0225,0.0395 -0.0337,0.0592 -0.48827,-0.44685 -0.98055,-0.88498 -1.47767,-1.31452 -0.89828,-0.93467 -1.67531,-2.00847 -2.04897,-3.1611 -0.44443,-1.27124 -0.3019,-2.72511 0.20561,-4.01852 z"
       id="path4654"
       inkscape:connector-curvature="0"
       inkscape:path-effect="#path-effect4662"
       inkscape:original-d="m -154.78125,159.15208 c -14.55208,10.05417 -2.64583,15.875 -2.64583,15.875" />
    <path
       style="fill:#000000;stroke:none;stroke-width:0.27594316px;stroke-linecap:butt;stroke-linejoin:miter;stroke-opacity:1"
       d="m -153.10076,173.03361 c -2.15604,0.12543 -4.13075,0.86815 -5.84824,1.84015 2.10894,0.0516 4.2771,-0.14986 6.36227,-0.21094 0.16345,-0.005 0.32662,-0.009 0.4898,-0.0116 1.02972,0.0197 1.98182,-0.0605 2.71191,0.32817 0.34343,0.13593 0.67367,0.45195 0.80867,0.88102 0,0 0,0 0,0 0.0265,0.22933 0.0554,0.46924 0.0864,0.72019 0.0206,0.005 0.0412,0.0104 0.062,0.0157 -0.0207,-0.005 -0.0413,-0.0105 -0.0618,-0.0156 0.0983,-0.21865 0.19513,-0.45459 0.29029,-0.70573 0,0 0,0 0,0 0.0959,-0.55737 -0.1001,-1.21325 -0.57933,-1.70543 -0.89918,-0.8686 -2.19911,-1.14314 -3.31552,-1.14718 -0.33642,-0.0122 -0.67235,-0.008 -1.00645,0.0114 z m 15.3504,-1.31813 c -2.58961,1.19015 -4.63404,3.09739 -6.22262,5.12132 2.33749,-1.25511 4.82527,-2.75035 7.27181,-3.77919 0,0 0,0 0,0 0.0493,-0.0202 0.0986,-0.0404 0.148,-0.0604 1.28667,-0.52199 2.56531,-0.95885 3.84714,-0.9514 0.74811,-0.0113 1.52138,0.13206 2.20626,0.51693 0.25939,0.20085 0.52739,0.40524 0.80452,0.61416 0,0 0,0 0,0 0.0177,-0.0125 0.0354,-0.0251 0.0532,-0.0376 -0.0178,0.0126 -0.0355,0.0251 -0.0531,0.0376 -0.16257,-0.29023 -0.33972,-0.59093 -0.53004,-0.90036 -0.5634,-0.66343 -1.40961,-1.14427 -2.35424,-1.35867 -1.61082,-0.34866 -3.29572,-0.0133 -4.77277,0.62239 -0.13383,0.0564 -0.26656,0.11481 -0.39816,0.17527 z m 7.74948,-7.10241 c -1.6856,-1.94459 -3.89405,-3.18061 -5.95674,-4.18154 1.4797,1.93287 3.48582,3.80574 5.03592,5.64571 0.91682,1.08793 1.65607,2.16656 2.15608,3.46167 l 0,0 c 0.19128,0.50422 0.33701,1.04223 0.18338,1.55275 l 0,0 0,0 0,0 c -0.0407,0.14251 -0.10098,0.28289 -0.18641,0.41189 l 0,0 0,0 0,0 c -0.0235,0.0368 -0.049,0.0726 -0.0775,0.10668 0,0 0,0 0,0 l 0,0 c 0,0 0,0 0,0 5.6e-4,0.0248 -2.3e-4,0.0477 -0.002,0.0686 -8.7e-4,0.008 -0.002,0.0162 -0.004,0.0237 -3e-5,1.8e-4 -1e-5,3.3e-4 7e-5,4.4e-4 -8e-5,-1.1e-4 -1e-4,-2.6e-4 -7e-5,-4.4e-4 0.001,-0.007 0.003,-0.0149 0.005,-0.0219 0.004,-0.0178 0.009,-0.034 0.0157,-0.0484 0,0 0,0 0,0 l 0,0 c 0,0 0,0 0,0 0.0421,-0.0165 0.0844,-0.0374 0.1264,-0.0612 l 0,0 0,0 0,0 c 0.14439,-0.0821 0.27847,-0.1954 0.39396,-0.33082 l 0,0 c 0.41855,-0.49671 0.56112,-1.23627 0.48049,-1.92522 l 0,0 c -0.17294,-1.74095 -1.00042,-3.35223 -2.16999,-4.70188 z"
       id="path4664"
       inkscape:connector-curvature="0"
       inkscape:path-effect="#path-effect4672"
       inkscape:original-d="m -158.93356,174.93281 c 12.3544,-3.22984 10.50231,1.6626 10.50231,1.6626 m 4.49792,0.28779 c 11.1125,-9.4971 14.2875,-3.74128 14.2875,-3.74128 m -6.35,-12.66279 c 11.1125,8.92151 7.14375,11.22384 7.14375,11.22384" />
    <path
       style="fill:#000000;stroke:none;stroke-width:0.42511621px;stroke-linecap:butt;stroke-linejoin:miter;stroke-opacity:1"
       d="m -152.79997,172.54357 c -1.39046,-0.0477 -2.99068,0.11178 -4.60669,0.77404 1.40071,1.23057 2.97688,2.11925 4.94229,2.06303 1.14494,-0.0331 2.32548,-0.41036 3.24044,-1.16394 l 0,0 c 0.3956,-0.27644 0.78517,-0.78224 0.86195,-1.31233 l 0,0 0,0 0,0 c 0.0174,-0.14836 0.008,-0.29341 -0.0281,-0.41617 l 0,0 c 0,0 0,0 0,0 -0.0511,-0.0262 -0.0935,-0.0522 -0.12759,-0.0779 0,0 0,0 0,0 -0.0137,-0.0103 -0.0259,-0.0215 -0.0374,-0.0317 -2.6e-4,-2.3e-4 -4.9e-4,-3.4e-4 -7.1e-4,-3.3e-4 2.2e-4,-1e-5 4.5e-4,1e-4 7e-4,3.3e-4 0.0114,0.0102 0.0197,0.0214 0.0259,0.0319 0,0 0,0 0,0 0.0153,0.026 0.0164,0.0524 0.004,0.0787 0,0 0,0 0,0 l 0,0 c -0.0699,0.0975 -0.1545,0.15878 -0.23942,0.1959 l 0,0 0,0 c -0.33509,0.17946 -0.70181,0.0877 -1.04144,0.0828 l 0,0 c -1.07532,-0.0499 -1.9784,-0.18901 -2.99433,-0.22431 z"
       id="path4674"
       inkscape:connector-curvature="0"
       inkscape:path-effect="#path-effect4682"
       inkscape:original-d="m -157.42219,173.42116 c 9.25553,1.38836 8.86638,-1.04284 8.86638,-1.04284" />
    <path
       style="fill:#000000;stroke:none;stroke-width:0.26458332px;stroke-linecap:butt;stroke-linejoin:miter;stroke-opacity:1"
       d="m -114.65651,177.41419 c -4.4311,-5.28026 -10.00193,-9.38947 -15.30851,-12.84749 4.96074,4.49972 10.61818,9.40886 15.00788,14.98172 0.32909,0.41775 0.6521,0.84018 0.96867,1.26782 1.19903,1.62389 2.28148,3.2958 2.97879,5.10716 l 0,0 c 0.4538,1.19113 0.75134,2.4261 0.66055,3.63623 l 0,0 c -0.0614,0.89231 -0.34177,1.778 -0.82399,2.53942 l 0,0 c -0.41245,0.6554 -0.97211,1.23048 -1.60279,1.7124 l 0,0 0,0 0,0 c -0.49468,0.37729 -1.034,0.69995 -1.59979,0.96636 l 0,0 0,0 0,0 c -0.17395,0.0819 -0.34997,0.15833 -0.52893,0.22732 l 0,0 -1e-5,0 0,0 c -0.0492,0.019 -0.0985,0.0374 -0.14804,0.0548 0,0 0,0 0,0 -0.01,0.0196 -0.0196,0.0384 -0.0298,0.0562 -0.004,0.006 -0.008,0.0129 -0.0113,0.0191 -2e-5,3e-5 -3e-5,7e-5 -2e-5,1e-4 -1e-5,-3e-5 0,-7e-5 2e-5,-1e-4 0.004,-0.006 0.008,-0.0124 0.0114,-0.0185 0.0104,-0.0167 0.0211,-0.0327 0.0319,-0.0479 0,0 0,0 0,0 0.0518,-0.009 0.10373,-0.0196 0.15576,-0.0306 l 0,0 0,0 0,0 c 0.18864,-0.0401 0.37659,-0.0888 0.56363,-0.14403 l 0,0 1e-5,0 0,0 c 0.60806,-0.17947 1.20654,-0.42747 1.77571,-0.74954 l 0,0 c 0.72683,-0.41087 1.40696,-0.95045 1.9592,-1.6318 l 0,0 c 0.64496,-0.7996 1.08313,-1.78337 1.25413,-2.83598 l 0,0 c 0.22272,-1.40736 0.0131,-2.85166 -0.42239,-4.1947 l 0,0 c -0.65124,-2.02997 -1.73406,-3.88082 -2.96421,-5.58952 -0.6117,-0.85183 -1.25576,-1.67751 -1.92793,-2.47856 z"
       id="path4684"
       inkscape:connector-curvature="0"
       inkscape:path-effect="#path-effect4692"
       inkscape:original-d="m -130.00059,164.61311 c 33.956841,26.02439 14.90684,30.52231 14.90684,30.52231" />
    <path
       style="fill:#000000;stroke:none;stroke-width:0.33417737px;stroke-linecap:butt;stroke-linejoin:miter;stroke-opacity:1"
       d="m -141.89801,187.46569 c -9.47887,0.57061 -18.8669,3.24831 -27.18774,5.8212 8.8944,-1.35864 19.75022,-3.55458 29.30244,-3.89241 5.68641,-0.20136 11.16143,0.20647 16.53461,1.63024 l 0,0 c 2.48896,0.66817 4.88554,1.59224 6.6731,3.31933 l 0,0 c 0.43623,0.4203 0.82963,0.88225 1.13249,1.40332 l 0,0 0,0 0,0 c 0.0806,0.13867 0.15459,0.28021 0.21668,0.42676 l 0,0 0,0 0,0 c 0.0162,0.0379 0.0315,0.0757 0.0452,0.1139 0,0 0,0 0,0 0.0222,0.006 0.0438,0.0124 0.0647,0.0189 0.008,0.002 0.0152,0.005 0.0226,0.007 7e-5,2e-5 1.3e-4,2e-5 1.9e-4,1e-5 -6e-5,1e-5 -1.2e-4,1e-5 -1.9e-4,-1e-5 -0.007,-0.002 -0.0148,-0.005 -0.0221,-0.007 -0.02,-0.007 -0.0395,-0.0135 -0.0585,-0.0204 0,0 0,0 0,0 -0.008,-0.0399 -0.0169,-0.0801 -0.0273,-0.12063 l 0,0 0,0 0,0 c -0.0397,-0.15563 -0.0928,-0.30954 -0.15361,-0.46143 l 0,0 0,0 0,0 c -0.22841,-0.57057 -0.56455,-1.10571 -0.95755,-1.59999 l 0,0 c -1.61104,-2.02414 -4.03794,-3.34298 -6.57523,-4.2458 l 0,0 c -6.00765,-2.15901 -12.43743,-2.78819 -19.00979,-2.39284 z"
       id="path4714"
       inkscape:connector-curvature="0"
       inkscape:path-effect="#path-effect4722"
       inkscape:original-d="m -169.06875,193.35996 c 50.8,-11.81815 53.97497,2.95424 53.97497,2.95424" />
    <path
       style="fill:#000000;stroke:#000000;stroke-width:0.93807638;stroke-linecap:butt;stroke-linejoin:miter;stroke-miterlimit:4;stroke-dasharray:none;stroke-opacity:1"
       d="m -145.89257,200.91243 c -2.31041,-0.07 -4.59154,-0.34573 -6.81546,-0.87845 0,0 0,0 0,0 -3.04462,-0.7178 -5.98659,-1.90673 -8.69199,-3.47892 -3.29432,-1.91024 -6.27422,-4.41025 -8.90614,-7.13206 1.90679,3.27577 4.42937,6.40829 7.66718,8.96249 2.65129,2.08778 5.73854,3.72851 9.10241,4.75065 3.16289,0.95054 6.46307,1.33935 9.76134,1.25659 2.89641,-0.0729 5.76168,-0.50822 8.51735,-1.22278 l 0,0 c 4.904,-1.26443 9.43123,-3.33258 13.547,-5.75085 l 0,0 c 1.3,-0.76285 2.57974,-1.59163 3.81756,-2.36103 l 0,0 0,0 0,0 c 0.33991,-0.2094 0.65691,-0.41879 0.99846,-0.57472 l 0,0 0,0 0,0 c 0.0725,-0.0434 0.12551,-0.0889 0.1719,-0.0965 0,0 0,0 0,0 -8.9e-4,-0.0263 0.007,-0.0458 0.0136,-0.0511 0.006,-0.005 0.007,0.001 0.005,0.008 0.007,-0.007 0.0108,-0.0149 0.008,-0.0145 -0.004,5.4e-4 -0.0107,0.0122 -0.0141,0.0271 0,0 0,0 0,0 -0.0506,-0.0135 -0.12784,0.009 -0.2159,0.0288 l 0,0 0,0 0,0 c -0.37987,0.071 -0.7555,0.20564 -1.12959,0.33379 l 0,0 0,0 0,0 c -1.40171,0.47981 -2.80187,1.02155 -4.21132,1.52646 l 0,0 c -4.41018,1.58013 -9.01183,3.00786 -13.68061,3.85586 l 0,0 c -3.28485,0.59158 -6.64722,0.91102 -9.9447,0.81083 z"
       id="path4744"
       inkscape:connector-curvature="0"
       inkscape:path-effect="#path-effect4752"
       inkscape:original-d="m -170.40815,189.50098 c 21.0154,27.48782 53.83255,3.15974 53.83255,4.84307"
       sodipodi:nodetypes="cc" />
    <path
       style="fill:#000000;stroke:none;stroke-width:0.26458332px;stroke-linecap:butt;stroke-linejoin:miter;stroke-opacity:1"
       d="m -212.67858,145.17008 c -0.51507,-12.39202 2.06355,-24.45209 6.47844,-34.99637 -3.02762,11.75902 -4.70717,24.59641 -3.77474,37.4606 0.34551,4.76964 1.04503,9.4768 2.13505,14.09908 l 0,0 c 1.16408,4.94859 2.71826,9.71031 4.73418,14.21332 l 0,0 c 0.58063,1.29695 1.19433,2.56363 1.86676,3.79473 l 0,0 0,0 0,0 c 0.18068,0.33079 0.36488,0.65792 0.55662,0.98029 l 0,0 0,0 0,0 c 0.0496,0.0834 0.0995,0.16637 0.15045,0.24864 0,0 0,0 0,0 -0.007,0.0362 -0.013,0.0716 -0.0178,0.10616 -0.002,0.0121 -0.003,0.0241 -0.005,0.0359 0,3e-5 -1e-5,4e-5 -2e-5,5e-5 1e-5,-1e-5 2e-5,-2e-5 2e-5,-5e-5 0.001,-0.0118 0.003,-0.0237 0.004,-0.0353 0.003,-0.0334 0.006,-0.0661 0.007,-0.0981 0,0 0,0 0,0 -0.0623,-0.0741 -0.124,-0.14921 -0.18531,-0.225 l 0,0 0,-1e-5 0,0 c -0.23649,-0.29244 -0.46614,-0.59226 -0.69198,-0.89689 l 0,0 0,0 0,0 c -0.83965,-1.1326 -1.62087,-2.3245 -2.36148,-3.55976 l 0,0 c -2.56573,-4.2794 -4.59627,-9.00615 -6.09022,-14.02756 l 0,0 c -1.63892,-5.51953 -2.56324,-11.26659 -2.80595,-17.09974 z"
       id="path4774"
       inkscape:connector-curvature="0"
       inkscape:path-effect="#path-effect4782"
       inkscape:original-d="m -206.11041,110.20417 c -14.81667,43.65625 5.55625,70.90833 5.55625,70.90833" />
    <path
       style="fill:#000000;stroke:none;stroke-width:0.26458332px;stroke-linecap:butt;stroke-linejoin:miter;stroke-opacity:1"
       d="m -192.08085,203.37498 c -0.37977,-0.56714 -0.74421,-1.14466 -1.09321,-1.73072 0,0 -1e-5,0 -1e-5,0 -3.81849,-6.34436 -5.92288,-13.62267 -7.3222,-20.53973 0.48342,7.01708 2.07468,14.59302 5.9802,21.33577 0,0 0,0 0,0 0.67275,1.14954 1.41519,2.26473 2.22512,3.33195 2.22286,2.92878 4.9249,5.45749 8.01847,7.33464 4.49858,1.29301 8.90378,2.47738 13.0796,3.51652 0,0 0,0 0,0 0.003,-0.0244 0.006,-0.0488 0.01,-0.0732 -0.003,0.0244 -0.006,0.0488 -0.01,0.0732 0,0 0,0 0,0 -4.08654,-1.59081 -8.27777,-3.14195 -12.55258,-4.63946 -3.29774,-2.25999 -6.07703,-5.23608 -8.33539,-8.60896 z"
       id="path4784"
       inkscape:connector-curvature="0"
       inkscape:path-effect="#path-effect4792"
       inkscape:original-d="m -200.5542,181.11251 c 5.02712,36.51249 29.36879,35.45416 29.36879,35.45416" />
    <path
       style="fill:#000000;stroke:none;stroke-width:0.26458332px;stroke-linecap:butt;stroke-linejoin:miter;stroke-opacity:1"
       d="m -168.78364,226.5218 c -5.82419,-3.8037 -10.97207,-8.56165 -15.44291,-13.4511 3.93623,5.90844 9.29581,11.55258 15.97275,15.62115 2.60325,1.58612 5.34685,2.89445 8.19691,3.8732 3.99241,0.69847 7.9025,1.29962 11.62096,1.78641 0,0 0,0 0,0 0.002,-0.0198 0.003,-0.0396 0.005,-0.0594 -0.002,0.0198 -0.003,0.0396 -0.005,0.0593 0,0 0,0 0,0 -3.65814,-1.0555 -7.42524,-2.05853 -11.27106,-2.99657 -3.16421,-1.31548 -6.18033,-2.94133 -9.07665,-4.83307 z"
       id="path4794"
       inkscape:connector-curvature="0"
       inkscape:path-effect="#path-effect4802"
       inkscape:original-d="m -184.27248,213.10689 c 17.3204,21.98061 35.84123,21.18686 35.84123,21.18686" />
    <path
       style="fill:#000000;stroke:none;stroke-width:0.26458332px;stroke-linecap:butt;stroke-linejoin:miter;stroke-opacity:1"
       d="m -132.44734,233.81893 c -1.76555,0.52878 -3.56435,0.93334 -5.38321,1.20163 0,0 0,0 0,0 -7.56466,1.12848 -15.2994,-0.14895 -22.20449,-2.50975 6.58706,3.1081 14.40729,4.98292 22.40947,3.99912 2.61119,-0.32504 5.18429,-0.95102 7.67008,-1.84612 3.11587,-1.1221 6.06517,-2.65633 8.76201,-4.51831 l 0,0 c 3.74936,-2.58819 6.98282,-5.73042 9.65275,-9.16493 l 0,0 c 0.84282,-1.08394 1.62763,-2.19375 2.34055,-3.33415 l 0,0 0,0 0,0 c 0.19924,-0.31871 0.39274,-0.63957 0.57762,-0.96433 l 0,0 0,0 0,0 c 0.049,-0.086 0.0973,-0.17226 0.14467,-0.25905 0,0 0,0 0,0 -0.001,-0.0305 -0.002,-0.0604 -0.002,-0.09 6e-5,-0.0103 2.8e-4,-0.0207 4.8e-4,-0.0309 0,-2e-5 0,-3e-5 -1e-5,-3e-5 1e-5,0 1e-5,1e-5 1e-5,3e-5 -2e-4,0.0102 -6.4e-4,0.0205 -0.001,0.0306 -0.001,0.0288 -0.004,0.0569 -0.007,0.0845 0,0 0,0 0,0 -0.0566,0.0811 -0.11399,0.16134 -0.17187,0.24126 l 0,0 0,0 0,0 c -0.2188,0.30209 -0.44455,0.59924 -0.67511,0.89431 l 0,0 0,0 0,0 c -0.82394,1.05444 -1.70344,2.07381 -2.62896,3.06992 l 0,0 c -2.91714,3.13909 -6.26303,6.00511 -9.99385,8.375 l 0,0 c -3.24583,2.06124 -6.7853,3.71193 -10.48988,4.82131 z"
       id="path4804"
       inkscape:connector-curvature="0"
       inkscape:path-effect="#path-effect4812"
       inkscape:original-d="m -160.05689,232.56505 c 33.85064,13.63495 51.57772,-16.26297 51.57772,-16.26297" />
    <path
       style="fill:#000000;stroke:none;stroke-width:0.26458332px;stroke-linecap:butt;stroke-linejoin:miter;stroke-opacity:1"
       d="m -94.303048,201.4594 c -3.939028,5.64125 -9.199262,10.63955 -14.209442,14.9165 6.02284,-3.72388 12.148486,-8.74875 16.36232,-15.30433 1.817404,-2.82767 3.229179,-5.86828 4.11071,-9.09158 l 0,0 c 0.718758,-2.64445 1.029005,-5.34563 0.802191,-7.9623 l 0,0 c -0.06363,-0.7331 -0.169322,-1.45684 -0.334845,-2.16096 l 0,0 -10e-7,0 0,0 c -0.04451,-0.18933 -0.09342,-0.37746 -0.149523,-0.56309 l 0,0 0,0 0,0 c -0.01475,-0.0488 -0.03002,-0.0976 -0.0462,-0.1461 -10e-7,0 -10e-7,0 -10e-7,0 -0.01883,-0.008 -0.03705,-0.0169 -0.05472,-0.0255 -0.0064,-0.003 -0.01272,-0.006 -0.019,-0.009 -4.6e-5,-2e-5 -8.7e-5,-3e-5 -1.23e-4,-2e-5 3.6e-5,-1e-5 7.7e-5,0 1.23e-4,2e-5 0.0063,0.003 0.01241,0.006 0.01844,0.01 0.01664,0.009 0.03243,0.0181 0.04744,0.0275 0,0 0,0 1e-6,0 0.0088,0.0504 0.01658,0.10063 0.02386,0.1508 l 0,0 10e-7,0 0,0 c 0.02765,0.1912 0.04809,0.38283 0.0645,0.57504 l 0,0 0,10e-6 0,0 c 0.06099,0.71406 0.06587,1.43156 0.03552,2.15293 l 0,0 c -0.107628,2.56199 -0.669909,5.10847 -1.538409,7.59931 l 0,0 c -1.215091,3.50256 -2.960713,6.74979 -5.112857,9.83166 z"
       id="path4814"
       inkscape:connector-curvature="0"
       inkscape:path-effect="#path-effect4822"
       inkscape:original-d="m -108.47789,216.42304 c 25.398724,-18.64179 20.636224,-35.31054 20.636224,-35.31054" />
    <path
       style="fill:#000000;stroke:none;stroke-width:0.26458332px;stroke-linecap:butt;stroke-linejoin:miter;stroke-opacity:1"
       d="m -80.400099,175.57848 c -0.01959,0.0257 -0.03928,0.0514 -0.05905,0.077 -1.880505,2.41241 -4.625541,4.3447 -7.139337,6.14906 2.958795,-0.91862 6.121076,-2.41587 8.377193,-5.16892 0,0 1e-6,0 1e-6,0 0.189174,-0.22934 0.368327,-0.46961 0.535426,-0.71979 0.915319,-1.37069 1.448116,-3.01231 1.309042,-4.67358 l 0,0 c -0.133373,-1.36491 -0.706862,-2.58755 -1.500773,-3.54744 l 0,0 c -0.266236,-0.32265 -0.55618,-0.61782 -0.865843,-0.87988 l 0,0 0,0 0,0 c -0.09133,-0.0774 -0.184286,-0.15189 -0.279258,-0.22213 0,0 0,0 0,0 l 0,0 c -1e-6,0 -1e-6,0 -1e-6,0 -0.03853,-0.005 -0.07485,-0.0119 -0.109082,-0.0212 -0.01244,-0.003 -0.02489,-0.007 -0.03686,-0.0112 -5.5e-5,-2e-5 -9e-5,-2e-5 -1.05e-4,0 1.5e-5,-2e-5 5e-5,-2e-5 1.05e-4,0 0.01197,0.004 0.02373,0.009 0.03482,0.0133 0.03051,0.0132 0.05805,0.0295 0.08279,0.0488 0,0 10e-7,0 10e-7,0 l 0,0 c 0,0 0,0 0,0 0.06876,0.0958 0.133618,0.19305 0.196035,0.29128 l 0,0 10e-7,0 0,0 c 0.213473,0.33568 0.401164,0.68527 0.565241,1.04464 l 0,0 c 0.481288,1.05755 0.747861,2.21872 0.683363,3.32442 l 0,0 c -0.06609,1.53288 -0.814253,3.00851 -1.793706,4.29557 z"
       id="path4824"
       inkscape:connector-curvature="0"
       inkscape:path-effect="#path-effect4832"
       inkscape:original-d="m -87.572113,181.85673 c 15.605447,-7.88798 7.403364,-15.29631 7.403364,-15.29631" />
    <path
       style="fill:#000000;stroke:none;stroke-width:0.26458332px;stroke-linecap:butt;stroke-linejoin:miter;stroke-opacity:1"
       d="m -75.128943,158.22512 c -1.122654,3.08162 -2.886378,5.90587 -5.076482,8.28975 3.061319,-1.73317 5.61911,-4.80181 6.810925,-8.58323 0.370751,-1.17669 0.598045,-2.39064 0.671829,-3.60874 -0.249845,-2.28626 -0.600203,-4.50607 -1.038878,-6.5576 0,0 0,0 0,0 -0.02199,0.004 -0.04398,0.007 -0.06598,0.0112 0.022,-0.004 0.04398,-0.008 0.06593,-0.0112 0,0 0,0 0,0 -0.209791,2.15278 -0.319719,4.32834 -0.322447,6.52585 -0.227107,1.34296 -0.579792,2.65767 -1.044895,3.93396 z"
       id="path4834"
       inkscape:connector-curvature="0"
       inkscape:path-effect="#path-effect4842"
       inkscape:original-d="m -80.168744,166.5604 c 9.524995,-7.6729 6.349995,-18.7854 6.349995,-18.7854" />
    <path
       style="fill:#000000;stroke:none;stroke-width:0.26458332px;stroke-linecap:butt;stroke-linejoin:miter;stroke-opacity:1"
       d="m -74.716425,111.61522 c 3.085414,12.27126 2.935918,24.73575 1.163487,36.1508 -1.829353,-11.34998 -3.623411,-23.5156 -6.697946,-35.02397 -10e-7,0 -10e-7,0 -10e-7,0 -0.199523,-0.74105 -0.403727,-1.48074 -0.613443,-2.21759 -1.7233,-6.05719 -3.79877,-11.864164 -6.850382,-17.110154 -1.941757,-3.373052 -4.224948,-6.503769 -7.20454,-8.985027 -1.175359,-0.759948 -2.365272,-1.539605 -3.572525,-2.339503 -10e-7,0 -10e-7,0 -2e-6,-10e-7 5e-6,-1.5e-5 0.08843,-0.25977 0.08844,-0.259781 0,0 -0.08841,0.259716 -0.08841,0.259715 1.350992,0.375515 2.746723,0.784207 4.181261,1.223757 3.71833,1.672095 7.054928,4.490759 9.837665,7.855134 4.767675,5.790388 7.833848,12.86337 9.687968,20.17667 -1e-6,0 0,0 0,0 0.02298,0.09 0.04579,0.17993 0.06843,0.26995 z"
       id="path4844"
       inkscape:connector-curvature="0"
       inkscape:path-effect="#path-effect4852"
       inkscape:original-d="m -73.761599,147.7653 c 0.207433,-60.3153 -24.6634,-65.87155 -24.6634,-65.87155" />
    <path
       style="fill:#000000;stroke:none;stroke-width:0.55562502;stroke-linecap:butt;stroke-linejoin:miter;stroke-miterlimit:4;stroke-dasharray:none;stroke-opacity:1"
       d="m -135.71268,56.192741 c 0.71494,0.148087 1.42405,0.314323 2.12648,0.497671 0,0 0,10e-7 0,10e-7 15.22458,4.039112 26.79264,14.215064 35.386841,24.889258 -11.812221,-6.574298 -24.650731,-13.791249 -37.463941,-16.587062 0,0 0,-10e-7 0,-10e-7 -1.56596,-0.348552 -3.13849,-0.635223 -4.70425,-0.842372 -2.45744,-0.325448 -4.90563,-0.456194 -7.31425,-0.322322 -3.20136,0.16663 -6.40509,0.780265 -9.43591,1.861968 l 0,0 c -4.86907,1.710445 -9.48891,4.749676 -13.45956,8.489046 l 0,0 c -1.32613,1.253364 -2.58607,2.581599 -3.7587,3.996024 l 0,0 0,10e-7 0,0 c -0.33837,0.408215 -0.66827,0.820888 -0.98573,1.244099 l 0,0 0,2e-6 0,0 c -0.085,0.113377 -0.16885,0.226707 -0.25076,0.340881 0,0 0,10e-7 0,10e-7 -0.021,0.02906 -0.0418,0.05789 -0.0622,0.08661 0,0 0,0 -1e-5,-10e-7 -0.0787,-0.02445 -0.15622,-0.04837 -0.23253,-0.07173 -0.0106,-0.0032 -0.0699,-0.0213 -0.0805,-0.02454 -1.4e-4,-4.4e-5 -2.8e-4,-1.02e-4 -4.1e-4,-1.74e-4 1.3e-4,7.2e-5 2.7e-4,1.3e-4 4.1e-4,1.74e-4 0.0114,0.0035 0.0682,0.02067 0.0795,0.02412 0.0745,0.02258 0.14779,0.04461 0.21974,0.06608 0,10e-7 0,10e-7 0,10e-7 0.007,-0.03461 0.0152,-0.06958 0.0233,-0.104898 0,0 0,0 0,0 0,-10e-7 0,-10e-7 0,-2e-6 0.0322,-0.137861 0.0671,-0.276197 0.10382,-0.414927 l 0,0 0,-2e-6 0,0 c 0.13692,-0.51768 0.29546,-1.034713 0.46877,-1.550205 l 0,0 0,-2e-6 0,0 c 0.60034,-1.785647 1.37798,-3.549157 2.31158,-5.264774 l 0,0 c 2.80307,-5.160417 7.08195,-9.872924 12.76507,-13.07326 l 0,0 c 3.52573,-1.967841 7.46357,-3.262043 11.56462,-3.794444 l 0,0 c 0,0 0,0 0,0 4.26953,-0.543444 8.5685,-0.300219 12.69856,0.554776 z"
       id="path4854"
       inkscape:connector-curvature="0"
       inkscape:path-effect="#path-effect4862"
       inkscape:original-d="M -98.406242,81.821463 C -155.575,32.906571 -175.94791,79.750181 -175.94791,79.750181" />
    <path
       style="fill:#000000;stroke:none;stroke-width:0.26916653px;stroke-linecap:butt;stroke-linejoin:miter;stroke-opacity:1"
       d="m -197.87407,86.864328 c 1.36399,-1.43596 2.87403,-2.736746 4.50538,-3.863768 0,0 0,0 0,0 5.4193,-3.643256 11.75829,-4.967514 17.52572,-4.107554 -4.83574,3.026318 -9.21222,6.540649 -12.81158,10.124724 -1.4414,1.399335 -2.82397,2.859223 -4.16565,4.360213 -1.37855,1.54145 -2.75613,3.174003 -4.10298,4.837765 -2.40544,4.234022 -5.3458,8.216552 -8.8446,12.097472 0,0 0,0 0,0 -3e-5,-1e-5 -0.36469,-0.11451 -0.36472,-0.11452 0,0 0.36467,0.1145 0.36467,0.1145 0,0 0,0 0,0 0.10434,-4.92947 0.96114,-10.19812 2.4485,-15.43463 1.33795,-2.884484 3.16908,-5.616983 5.44526,-8.014202 z"
       id="path4864"
       inkscape:connector-curvature="0"
       inkscape:path-effect="#path-effect4872"
       inkscape:original-d="m -175.78508,79.190585 c -24.78953,4.822853 -30.26996,31.032375 -30.26996,31.032375"
       sodipodi:nodetypes="cc" />
    <path
       style="fill:#000000;stroke:none;stroke-width:0.30953467px;stroke-linecap:butt;stroke-linejoin:miter;stroke-opacity:1"
       d="m -143.98977,225.96752 c -1.27908,-0.0399 -2.55619,-0.13967 -3.82475,-0.29822 0,0 0,0 0,0 -8.39593,-1.03924 -16.35064,-4.53229 -23.33996,-8.59104 6.39583,4.90748 14.24773,9.10205 23.09898,10.39937 0,0 0,0 0,0 2.05405,0.29868 4.1382,0.42488 6.22216,0.37256 3.96417,-0.0997 7.88169,-0.84409 11.54772,-2.23091 4.07361,-1.54749 7.7513,-3.81014 10.85395,-6.54995 1.2262,-1.27198 2.42564,-2.53141 3.59453,-3.77444 0,0 -0.0651,-0.0611 -0.0651,-0.0611 1e-5,1e-5 0.0651,0.0611 0.0651,0.0611 -1.32684,1.09177 -2.65669,2.19872 -3.98849,3.32028 -3.30935,2.36217 -7.01878,4.26178 -10.9795,5.53408 -4.21786,1.3615 -8.69939,1.95832 -13.18463,1.81828 z"
       id="path4874"
       inkscape:connector-curvature="0"
       inkscape:path-effect="#path-effect4882"
       inkscape:original-d="m -171.19288,217.13589 c 34.66788,23.09822 55.30538,-1.88827 55.30538,-1.88827" />
    <path
       style="fill:#000000;stroke:none;stroke-width:0.26384503px;stroke-linecap:butt;stroke-linejoin:miter;stroke-opacity:1"
       d="m -190.93162,98.219464 c 4.21266,-6.415452 9.91261,-12.376326 15.02081,-17.606008 -6.21589,4.830482 -12.77176,10.810323 -17.25597,18.205443 -2.17503,3.587261 -3.80677,7.419541 -4.68737,11.477921 l 0,0 c -0.58396,2.69985 -0.74587,5.45605 -0.23148,8.06397 l 0,0 c 0.13765,0.69688 0.32417,1.3801 0.58185,2.03038 l 0,0 0,0 0,0 c 0.0686,0.17313 0.14247,0.34425 0.22476,0.51099 l 0,0 0,0 0,0 c 0.0217,0.0439 0.044,0.0876 0.0673,0.13088 l 0,0 c 0.0265,0.006 0.0521,0.0125 0.0772,0.0191 6e-5,10e-6 1.1e-4,10e-6 1.5e-4,-2e-5 -4e-5,3e-5 -9e-5,3e-5 -1.5e-4,2e-5 -0.025,-0.007 -0.0486,-0.0142 -0.071,-0.0221 l 0,0 c -0.0174,-0.0459 -0.0337,-0.092 -0.0492,-0.13802 l 0,0 0,0 0,0 c -0.059,-0.17542 -0.1091,-0.35299 -0.15412,-0.53181 l 0,0 0,-10e-6 0,0 c -0.16892,-0.67103 -0.26607,-1.35672 -0.31999,-2.04961 l 0,0 c -0.20129,-2.58128 0.21383,-5.18471 0.95357,-7.74515 l 0,0 c 1.2646,-4.39042 3.28395,-8.44826 5.8436,-12.345976 z"
       id="path4884"
       inkscape:connector-curvature="0"
       inkscape:path-effect="#path-effect4892"
       inkscape:original-d="m -175.94976,80.570065 c -28.66215,25.728795 -21.18461,40.482015 -21.18461,40.482015" />
    <path
       style="fill:#000000;stroke:none;stroke-width:0.26457828px;stroke-linecap:butt;stroke-linejoin:miter;stroke-opacity:1"
       d="m -200.04981,149.84468 c 0.82394,-9.8069 1.95723,-19.64163 2.91545,-28.8029 -2.0895,9.63265 -3.85533,20.11512 -4.6644,30.81045 -0.40161,5.31136 -0.56163,10.59088 -0.43426,15.81453 l 0,0 c 0.0838,3.44458 0.29383,6.80449 0.77764,10.09768 l 0,0 c 0.11482,0.78155 0.24472,1.55539 0.40753,2.31974 l 0,0 0,0 0,0 c 0.0397,0.18637 0.0814,0.3722 0.12712,0.55695 l 0,0 0,1e-5 0,0 c 0.0114,0.0461 0.0231,0.0923 0.0353,0.13835 l 0,0 c 0.024,0.0114 0.0472,0.0228 0.0698,0.0345 6e-5,2e-5 1.1e-4,3e-5 1.5e-4,2e-5 -4e-5,1e-5 -9e-5,0 -1.5e-4,-2e-5 -0.0226,-0.0117 -0.044,-0.0235 -0.0645,-0.0356 l 0,0 c -0.007,-0.0471 -0.0138,-0.0942 -0.0202,-0.14114 l 0,0 0,0 0,0 c -0.0255,-0.18834 -0.047,-0.37692 -0.0667,-0.56598 l 0,0 0,0 0,0 c -0.0808,-0.77496 -0.1314,-1.55264 -0.1703,-2.33867 l 0,0 c -0.16377,-3.30888 -0.11429,-6.62369 0.001,-10.06292 l 0,0 c 0.19862,-5.90053 0.57931,-11.79334 1.08626,-17.82495 z"
       id="path4894"
       inkscape:connector-curvature="0"
       inkscape:path-effect="#path-effect4902"
       inkscape:original-d="m -197.19211,121.03266 c -7.06595,44.73401 -3.62338,59.78133 -3.62338,59.78133" />
    <path
       style="fill:#000000;stroke:none;stroke-width:0.26458332px;stroke-linecap:butt;stroke-linejoin:miter;stroke-opacity:1"
       d="m -138.43458,76.578468 c -12.97147,0.02185 -25.64135,1.463461 -37.4845,3.712258 12.80619,-1.328597 26.35797,-2.273462 40.25503,-2.115736 5.7991,0.06567 11.54013,0.3217 17.24374,0.795808 l 0,0 c 5.08929,0.422941 10.02853,1.007978 14.87578,1.892321 l 0,0 c 1.28398,0.23425 2.55075,0.48737 3.804834,0.780196 l 0,0 10e-7,0 0,0 c 0.322997,0.07542 0.644263,0.15324 0.963919,0.236221 l 0,0 2e-6,10e-7 0,0 c 0.08123,0.02108 0.162252,0.04246 0.243042,0.06449 l 0,0 c 0.03423,-0.0119 0.06811,-0.0227 0.101626,-0.03238 3.2e-5,-9e-6 4.5e-5,-2.4e-5 4e-5,-4.4e-5 5e-6,2e-5 -8e-6,3.5e-5 -4e-5,4.4e-5 -0.03351,0.0097 -0.06664,0.01816 -0.09938,0.02544 l 0,0 c -0.07866,-0.02878 -0.15771,-0.05693 -0.237041,-0.08478 l 0,0 -10e-7,0 0,0 c -0.31189,-0.10948 -0.62641,-0.213707 -0.942961,-0.315252 l 0,0 -2e-6,0 0,0 c -1.227909,-0.393893 -2.477449,-0.744582 -3.747369,-1.07153 l 0,0 c -4.7776,-1.23002 -9.72613,-2.094797 -14.83927,-2.716082 l 0,0 c -6.61711,-0.803908 -13.34408,-1.182241 -20.13745,-1.170972 z"
       id="path4904"
       inkscape:connector-curvature="0"
       inkscape:path-effect="#path-effect4912"
       inkscape:original-d="m -175.9105,80.348565 c 50.23342,-7.450648 77.479434,1.563053 77.479434,1.563053" />
    <path
       style="fill:#000000;stroke:none;stroke-width:0.26458332px;stroke-linecap:butt;stroke-linejoin:miter;stroke-opacity:1"
       d="m -87.086529,116.91186 c -2.341214,-12.78049 -6.808184,-24.732129 -12.6008,-35.294561 5.204132,11.746934 9.315836,24.627461 11.509388,38.289251 0.802209,4.99546 1.332792,10.00295 1.580664,15.00821 l 0,0 c 0.271465,5.47868 0.214788,10.85366 -0.256567,16.12933 l 0,0 c -0.133227,1.49112 -0.298136,2.96342 -0.516752,4.42234 l 0,0 -10e-7,0 0,0 c -0.05806,0.38749 -0.119717,0.77297 -0.188316,1.15683 l 0,0 0,0 0,0 c -0.01766,0.0989 -0.03577,0.1976 -0.05475,0.29604 0,0 0,0 10e-7,0 0.01017,0.029 0.01953,0.0577 0.02803,0.0863 0.003,0.01 0.0058,0.0199 0.0085,0.0298 5e-6,2e-5 1.2e-5,3e-5 2.1e-5,3e-5 -9e-6,0 -1.6e-5,-10e-6 -2.1e-5,-3e-5 -0.0027,-0.01 -0.0054,-0.0198 -0.008,-0.0297 -0.0074,-0.0283 -0.0141,-0.0564 -0.02004,-0.0843 0,0 -1e-6,0 -1e-6,0 0.02725,-0.0965 0.05365,-0.19348 0.07959,-0.29076 l 0,0 1e-6,0 0,0 c 0.100572,-0.37716 0.193939,-0.75726 0.283301,-1.13984 l 0,0 10e-7,0 0,0 c 0.336098,-1.43892 0.612983,-2.90254 0.851341,-4.38971 l 0,0 c 0.840664,-5.2451 1.182579,-10.67308 1.095146,-16.23056 l 0,0 c -0.09421,-5.97667 -0.697004,-11.98682 -1.790807,-17.95865 z"
       id="path4914"
       inkscape:connector-curvature="0"
       inkscape:path-effect="#path-effect4922"
       inkscape:original-d="m -99.739695,81.643314 c 20.629279,41.525436 12.162613,75.392106 12.162613,75.392106"
       sodipodi:nodetypes="cc" />
    <path
       style="fill:#000000;stroke:none;stroke-width:0.25155416px;stroke-linecap:butt;stroke-linejoin:miter;stroke-opacity:1"
       d="m -170.06018,149.05701 c -1.10708,0.1556 -2.33534,0.16641 -3.6007,0.33051 1.05424,0.78545 2.38047,1.33307 3.89152,1.15428 0,0 0,0 0,0 0.0755,-0.0119 0.15136,-0.0264 0.22735,-0.0435 0.74575,-0.1685 1.48897,-0.59463 1.9694,-1.24927 0.12874,-0.73927 0.18578,-1.44259 0.14922,-2.03727 0,0 0,0 0,0 -0.0182,-0.002 -0.0364,-0.004 -0.0547,-0.005 0.0183,0.002 0.0364,0.003 0.0543,0.005 -0.4357,0.54763 -0.79258,1.02431 -1.07953,1.4794 -0.41086,0.26574 -0.94577,0.30643 -1.48225,0.35521 0,0 0,0 0,0 -0.0249,0.004 -0.0497,0.007 -0.0747,0.0107 z"
       id="path4924"
       inkscape:connector-curvature="0"
       inkscape:path-effect="#path-effect4932"
       inkscape:original-d="m -173.67426,149.44175 c 6.73204,1.66057 6.19727,-2.23514 6.19727,-2.23514"
       sodipodi:nodetypes="cc" />
    <path
       style="fill:#000000;stroke:none;stroke-width:0.95120108px;stroke-linecap:butt;stroke-linejoin:miter;stroke-opacity:1"
       d="m -174.8645,143.7336 c -1.99907,0.90476 -3.56008,2.73156 -4.60306,5.38678 2.93455,1.20179 5.55805,1.31898 7.71456,0.34458 1.99911,-0.90475 3.56015,-2.73156 4.60314,-5.38681 -2.93458,-1.20181 -5.55811,-1.31898 -7.71464,-0.34455 z"
       id="path4934"
       inkscape:connector-curvature="0"
       inkscape:path-effect="#path-effect4942"
       inkscape:original-d="m -179.36865,149.33914 12.11986,-5.47974" />
    <path
       style="fill:#000000;stroke:none;stroke-width:0.28916982px;stroke-linecap:butt;stroke-linejoin:miter;stroke-opacity:1"
       d="m -118.64142,147.43252 c -0.1838,0.0877 -0.37279,0.1641 -0.56534,0.2277 0,0 0,0 0,0 -1.43433,0.51131 -3.29708,0.46727 -5.06468,0.42018 1.49031,0.98564 3.41829,1.71395 5.54611,1.22598 0,0 0,0 0,0 0.46288,-0.11571 0.90605,-0.30033 1.31423,-0.54562 0.74461,-0.44762 1.35563,-1.08687 1.76066,-1.84271 l 0,0 c 0.49147,-0.93961 0.6642,-1.94343 0.6226,-2.88851 l 0,0 c -0.0135,-0.32482 -0.0515,-0.64413 -0.11448,-0.95325 l 0,0 0,0 0,0 c -0.0184,-0.0912 -0.0389,-0.18154 -0.0623,-0.27021 0,0 0,0 0,0 l 0,0 c 0,0 0,0 0,0 -0.0285,-0.0232 -0.0526,-0.0464 -0.0723,-0.0697 -0.007,-0.009 -0.014,-0.0175 -0.0201,-0.0262 -5e-5,-7e-5 -1e-4,-1e-4 -1.5e-4,-1e-4 5e-5,0 1e-4,3e-5 1.5e-4,1e-4 0.006,0.009 0.0115,0.0176 0.0161,0.0262 0.0124,0.0234 0.0194,0.047 0.0213,0.0707 0,0 0,0 0,0 l 0,0 c 0,0 0,0 0,0 -0.0254,0.0883 -0.0525,0.17479 -0.0807,0.26044 l 0,0 0,0 0,0 c -0.0963,0.29359 -0.2043,0.58007 -0.32122,0.86079 l 0,0 c -0.3378,0.8067 -0.753,1.57239 -1.2641,2.17823 l 0,0 c -0.4682,0.56257 -1.07124,1.01871 -1.71563,1.32594 z"
       id="path4954"
       inkscape:connector-curvature="0"
       inkscape:path-effect="#path-effect4962"
       inkscape:original-d="m -124.29033,148.14245 c 9.31427,2.83553 8.99313,-5.43232 8.99313,-5.43232" />
    <path
       style="fill:#000000;stroke:none;stroke-width:0.56682318px;stroke-linecap:butt;stroke-linejoin:miter;stroke-opacity:1"
       d="m -121.0097,143.46319 c -1.45356,1.00791 -2.5566,2.49434 -3.25258,4.3831 2.20606,0.0998 4.15093,-0.40855 5.71902,-1.49483 1.45358,-1.00791 2.55664,-2.49435 3.25263,-4.38313 -2.20609,-0.0998 -4.15097,0.40855 -5.71907,1.49486 z"
       id="path4964"
       inkscape:connector-curvature="0"
       inkscape:path-effect="#path-effect4972"
       inkscape:original-d="m -124.18283,147.96093 8.81274,-6.10724"
       sodipodi:nodetypes="cc" />
    <path
       style="fill:#000000;stroke:none;stroke-width:0.26458332px;stroke-linecap:butt;stroke-linejoin:miter;stroke-opacity:1"
       d="m -179.95646,221.40119 c -0.4405,-3.34918 -2.33873,-6.09591 -4.26612,-8.32477 1.08448,2.79248 2.47929,5.85969 2.72668,8.77803 0,0 0,0 0,0 0.008,0.11748 0.0137,0.23565 0.0169,0.35389 0.0331,1.21417 -0.18721,2.43709 -0.96022,3.18906 -0.62794,0.69363 -1.62434,1.12877 -2.65278,1.40418 0,0 -1e-5,0 -1e-5,0 -0.5647,0.0879 -1.13135,0.18472 -1.7011,0.29016 0,0 0,0 0,0 0,-1.5e-4 -0.003,0.066 -0.003,0.0659 1e-5,-9e-5 0.003,-0.0657 0.003,-0.0658 0,0 0,0 0,0 0.56031,0.0906 1.14108,0.17198 1.73882,0.24418 1.13013,0.0266 2.37764,-0.21394 3.44355,-1.00364 1.37268,-1.11235 1.88519,-2.95454 1.68898,-4.63656 -0.0102,-0.0985 -0.0218,-0.19674 -0.0347,-0.29459 z"
       id="path4974"
       inkscape:connector-curvature="0"
       inkscape:path-effect="#path-effect4982"
       inkscape:original-d="m -184.27248,213.10689 c 9.3829,15.36603 -2.52335,14.04311 -2.52335,14.04311" />
    <path
       style="fill:#000000;stroke:none;stroke-width:0.26458332px;stroke-linecap:butt;stroke-linejoin:miter;stroke-opacity:1"
       d="m -222.65822,234.80762 c 2.62031,-1.07863 5.27634,-2.05448 7.96451,-2.91928 0,0 0,0 0,0 9.28665,-2.98762 18.7059,-4.53437 27.89608,-4.67225 -9.13832,-0.6456 -18.78619,0.40016 -28.33693,3.25916 -3.62444,1.08497 -7.18683,2.41012 -10.66642,3.95361 -3.93983,1.74776 -7.74217,3.7615 -11.38148,5.9961 l 0,0 c -5.08284,3.12033 -9.7899,6.62021 -14.05744,10.43815 l 0,0 c -1.2693,1.13555 -2.49368,2.2936 -3.66305,3.48843 l 0,0 -1e-5,0 0,0 c -0.31729,0.3242 -0.63014,0.65069 -0.93662,0.98192 l 0,0 0,0 0,0 c -0.0799,0.0864 -0.1594,0.17305 -0.23813,0.26034 0,0 0,0 0,0 -0.009,0.0332 -0.0183,0.0658 -0.0283,0.0979 -0.003,0.0112 -0.007,0.0222 -0.0107,0.0333 -10e-6,2e-5 0,3e-5 0,3e-5 0,0 -10e-6,-1e-5 0,-3e-5 0.004,-0.011 0.007,-0.0219 0.0112,-0.0328 0.0109,-0.0311 0.0227,-0.0615 0.0352,-0.0912 0,0 0,0 0,-1e-5 0.0858,-0.0803 0.17226,-0.15988 0.25901,-0.23911 l 0,0 1e-5,0 0,0 c 0.33289,-0.30399 0.67081,-0.60295 1.01264,-0.90001 l 0,0 1e-5,0 0,0 c 1.25846,-1.09363 2.55893,-2.15175 3.89778,-3.19404 l 0,0 c 4.48311,-3.49002 9.29822,-6.72026 14.42207,-9.66197 l 0,0 c 4.43307,-2.54458 9.0487,-4.8341 13.82052,-6.79824 z"
       id="path4984"
       inkscape:connector-curvature="0"
       inkscape:path-effect="#path-effect4992"
       inkscape:original-d="m -186.79611,227.15764 c -41.01014,-1.06597 -69.32055,28.56736 -69.32055,28.56736" />
    <path
       style="fill:#000000;stroke:none;stroke-width:0.26458332px;stroke-linecap:butt;stroke-linejoin:miter;stroke-opacity:1"
       d="m -169.96926,245.15313 c -2.14331,-1.27084 -4.19021,-2.67375 -6.10806,-4.23407 -4.65719,-3.78874 -8.37275,-8.48249 -10.66543,-13.72315 1.6207,5.48889 5.02849,10.67241 9.75014,14.81088 2.39689,2.10095 5.04896,3.90885 7.8666,5.44954 2.05473,1.12343 4.18268,2.09674 6.34617,2.93676 4.15627,1.61586 8.40726,2.73795 12.62075,3.43554 l 0,0 c 1.3253,0.2195 2.64185,0.39606 3.95122,0.52008 l 0,0 1e-5,0 0,0 c 0.36365,0.0344 0.72633,0.0648 1.08855,0.089 l 0,0 0,0 0,0 c 0.0955,0.006 0.19097,0.0123 0.28641,0.0175 0,0 0,0 0,0 0.0263,-0.0145 0.0524,-0.0279 0.0784,-0.0404 0.009,-0.004 0.0183,-0.009 0.0274,-0.0127 2e-5,-1e-5 3e-5,-2e-5 3e-5,-3e-5 0,10e-6 -1e-5,2e-5 -3e-5,3e-5 -0.009,0.004 -0.0182,0.008 -0.0273,0.0119 -0.0258,0.0109 -0.0516,0.0205 -0.0772,0.0289 0,0 0,0 0,0 -0.0941,-0.017 -0.18796,-0.0346 -0.28178,-0.0525 l 0,0 0,0 0,0 c -0.35609,-0.0682 -0.7115,-0.14152 -1.06782,-0.21796 l 0,0 0,0 0,0 c -1.28142,-0.27489 -2.56241,-0.58818 -3.85275,-0.93192 l 0,0 c -4.08142,-1.08746 -8.1822,-2.45994 -12.20157,-4.18681 l 0,0 c -2.64703,-1.13862 -5.24889,-2.42698 -7.73378,-3.90048 z"
       id="path4994"
       inkscape:connector-curvature="0"
       inkscape:path-effect="#path-effect5002"
       inkscape:original-d="m -186.79763,227.21609 c 8.73305,23.74641 42.07055,27.18599 42.07055,27.18599" />
    <path
       style="fill:#000000;stroke:none;stroke-width:0.26458332px;stroke-linecap:butt;stroke-linejoin:miter;stroke-opacity:1"
       d="m -117.88581,253.40451 c -9.04864,0.82684 -18.29159,0.85789 -26.83852,0.93916 9.09044,0.98711 19.03759,1.51497 28.97452,0.43824 0.92645,-0.10042 1.85154,-0.21459 2.77491,-0.34331 5.22038,-0.71337 10.46812,-1.78803 14.866741,-4.58773 l 0,0 c 1.912725,-1.19371 3.663014,-2.90174 4.117321,-5.06509 l 0,0 c 0.113818,-0.55522 0.130715,-1.12607 0.03404,-1.67251 l 0,0 0,0 0,0 c -0.02803,-0.15828 -0.06562,-0.31501 -0.115859,-0.46739 l 0,0 -10e-7,0 0,0 c -0.01402,-0.0425 -0.02908,-0.0848 -0.04573,-0.12667 0,0 0,0 -10e-7,0 -0.01819,-0.006 -0.03605,-0.0112 -0.05368,-0.0169 -0.0064,-0.002 -0.01309,-0.004 -0.01946,-0.006 -6e-5,-2e-5 -1.13e-4,-2e-5 -1.57e-4,10e-6 4.4e-5,-3e-5 9.7e-5,-3e-5 1.57e-4,-10e-6 0.0065,0.002 0.01283,0.004 0.01907,0.007 0.01694,0.006 0.03319,0.0122 0.04885,0.0187 10e-7,0 10e-7,0 10e-7,0 0.01184,0.0434 0.02196,0.0869 0.03098,0.13015 l 0,0 0,1e-5 0,0 c 0.03229,0.15601 0.05144,0.31356 0.06131,0.47112 l 0,0 0,0 0,0 c 0.03402,0.54325 -0.04443,1.08682 -0.20704,1.60002 l 0,0 c -0.628768,1.99943 -2.416077,3.36502 -4.301666,4.39651 l 0,0 c -4.390455,2.35956 -9.430595,3.11405 -14.641585,3.77924 -1.56406,0.19534 -3.13172,0.36271 -4.70422,0.50634 z"
       id="path5004"
       inkscape:connector-curvature="0"
       inkscape:path-effect="#path-effect5012"
       inkscape:original-d="m -144.72707,254.40208 c 56.356238,2.64583 50.535405,-11.90625 50.535405,-11.90625" />
    <path
       style="fill:#000000;stroke:none;stroke-width:0.26458332px;stroke-linecap:butt;stroke-linejoin:miter;stroke-opacity:1"
       d="m -108.33658,234.32847 c -0.2294,-0.8054 -0.42597,-1.62007 -0.58955,-2.44101 0,0 0,0 0,0 -0.96516,-4.72592 -0.83862,-9.62849 -0.21703,-14.2281 -1.45728,4.40402 -2.14881,9.43067 -1.28745,14.5132 0,0 0,0 0,0 0.2282,1.3101 0.55989,2.60666 0.99242,3.87228 0.75417,2.20633 1.80593,4.29266 3.12025,6.17428 2.61263,2.47261 5.22435,4.81638 7.74273,6.94647 0,0 0,1e-5 0,1e-5 0.01397,-0.0181 0.02791,-0.0363 0.04182,-0.0545 -0.01392,0.0182 -0.02785,0.0363 -0.04181,0.0544 0,0 -10e-7,0 -10e-7,0 -2.136332,-2.60523 -4.380592,-5.20011 -6.725212,-7.76697 -1.31409,-2.20563 -2.32923,-4.58764 -3.03617,-7.07014 z"
       id="path5014"
       inkscape:connector-curvature="0"
       inkscape:path-effect="#path-effect5022"
       inkscape:original-d="m -109.20018,217.64642 c -5.09982,22.46816 10.660156,31.4734 10.660156,31.4734" />
    <path
       style="fill:#000000;stroke:none;stroke-width:0.26458332px;stroke-linecap:butt;stroke-linejoin:miter;stroke-opacity:1"
       d="m -87.231403,244.57918 c -2.186903,-0.94854 -4.395408,-1.83506 -6.59362,-2.68219 -1.005598,-0.4921 -2.008212,-0.97435 -3.005362,-1.44572 -2.967847,-0.80127 -5.994225,-0.2526 -8.490075,0.89233 2.63387,-0.70893 5.554409,-0.85337 8.07648,0.0988 0.942671,0.55727 1.893161,1.11066 2.850706,1.65953 2.562469,1.17919 5.152794,2.31526 7.764798,3.46644 4.497114,1.98172 8.711958,3.85923 12.909319,6.01576 l 0,0 c 1.108791,0.571 2.176136,1.12372 3.16211,1.82325 l 0,0 c 0.186341,0.13243 0.366944,0.26633 0.530058,0.41966 l 0,0 0,0 0,0 c 0.03427,0.0317 0.06723,0.0636 0.09724,0.0975 0,0 1e-6,0 1e-6,0 0,0 10e-7,0 10e-7,0 0.02035,6.7e-4 0.03992,0.002 0.05849,0.004 0.0071,8.1e-4 0.01398,0.002 0.02064,0.003 2.54e-4,5e-5 4.63e-4,1e-5 6.3e-4,-1e-4 -1.67e-4,1.1e-4 -3.75e-4,1.5e-4 -6.29e-4,1e-4 -0.0067,-0.001 -0.01335,-0.002 -0.02008,-0.003 -0.01763,-0.003 -0.03508,-0.005 -0.05209,-0.008 0,0 -1e-6,0 -1e-6,0 0,0 -10e-7,0 -10e-7,0 -0.02343,-0.0389 -0.05078,-0.077 -0.07974,-0.11518 l 0,0 -10e-7,0 0,0 c -0.136651,-0.18069 -0.296783,-0.34699 -0.461804,-0.50904 l 0,0 c -0.872024,-0.85645 -1.87895,-1.57945 -2.915356,-2.28603 l 0,0 c -4.248209,-2.90003 -8.92089,-5.29167 -13.851708,-7.43064 z"
       id="path5034"
       inkscape:connector-curvature="0"
       inkscape:path-effect="#path-effect5042"
       inkscape:original-d="m -105.30041,241.39853 c 7.139995,-2.60687 11.182024,1.12068 11.182024,1.12068 C -71.4375,252.02083 -69.85,254.93125 -69.85,254.93125" />
    <path
       style="fill:#000000;stroke:none;stroke-width:0.26458332px;stroke-linecap:butt;stroke-linejoin:miter;stroke-opacity:1"
       d="m -190.99213,244.3412 c -4.16371,-4.13158 -7.49017,-8.70592 -9.77141,-13.77086 1.41557,5.79691 4.82642,11.32106 9.64536,15.83791 1.41172,1.32308 2.91508,2.53243 4.48099,3.62044 3.52529,1.90072 7.03105,3.66085 10.39959,5.2197 0,0 0,0 0,0 0.009,-0.0191 0.0183,-0.0383 0.0274,-0.0575 -0.009,0.0192 -0.0183,0.0383 -0.0274,0.0575 0,0 0,0 0,0 -3.06122,-2.16551 -6.29008,-4.30457 -9.64054,-6.38268 -1.7765,-1.40636 -3.49417,-2.91697 -5.114,-4.52449 z"
       id="path5044"
       inkscape:connector-curvature="0"
       inkscape:path-effect="#path-effect5052"
       inkscape:original-d="m -200.81875,230.58958 c 6.08542,17.4625 24.60625,24.60625 24.60625,24.60625" />
    <path
       style="fill:#000000;stroke:none;stroke-width:0.26458332px;stroke-linecap:butt;stroke-linejoin:miter;stroke-opacity:1"
       d="m -146.23278,175.9216 c -0.73645,-0.0396 -1.47982,0.16946 -2.19202,0.61631 0.701,0.59981 1.4715,0.93106 2.2657,0.97408 0.4818,0.0259 0.96752,-0.0546 1.44641,-0.2396 l 0,0 c 0.19925,-0.077 0.39688,-0.17188 0.59212,-0.28435 l 0,0 0,0 0,0 c 0.0357,-0.0206 0.0713,-0.0417 0.10676,-0.0634 l 0,0 c 0,0 0,0 0,0 0.0152,-0.0562 0.0253,-0.0793 0.0378,-0.0856 0.003,-0.001 0.003,-0.002 0.003,-0.002 0,0 -4e-5,7.1e-4 -0.003,0.002 -0.0124,0.004 -0.0219,0.0172 -0.0343,0.0206 0,0 0,0 0,0 l 0,0 c -0.0328,-0.0275 -0.0658,-0.0543 -0.099,-0.0807 l 0,0 0,0 c -0.18108,-0.14372 -0.36677,-0.27013 -0.55633,-0.37871 l 0,0 c -0.50314,-0.28821 -1.03036,-0.44906 -1.5672,-0.47813 z"
       id="path5054"
       inkscape:connector-curvature="0"
       inkscape:path-effect="#path-effect5062"
       inkscape:original-d="m -148.42795,176.5963 c 4.45497,0.2405 4.45497,0.2405 4.45497,0.2405" />
  </g>
</svg>
