<?xml version="1.0" encoding="UTF-8" standalone="no"?>
<!-- Created with Inkscape (http://www.inkscape.org/) -->

<svg
   xmlns:dc="http://purl.org/dc/elements/1.1/"
   xmlns:cc="http://creativecommons.org/ns#"
   xmlns:rdf="http://www.w3.org/1999/02/22-rdf-syntax-ns#"
   xmlns:svg="http://www.w3.org/2000/svg"
   xmlns="http://www.w3.org/2000/svg"
   xmlns:sodipodi="http://sodipodi.sourceforge.net/DTD/sodipodi-0.dtd"
   xmlns:inkscape="http://www.inkscape.org/namespaces/inkscape"
   width="210mm"
   height="297mm"
   viewBox="0 0 210 297"
   version="1.1"
   id="svg8"
   inkscape:version="0.92.3 (2405546, 2018-03-11)"
   sodipodi:docname="f_letter.svg">
  <defs
     id="defs2" />
  <sodipodi:namedview
     id="base"
     pagecolor="#ffffff"
     bordercolor="#666666"
     borderopacity="1.0"
     inkscape:pageopacity="0.0"
     inkscape:pageshadow="2"
     inkscape:zoom="0.35"
     inkscape:cx="-155.71429"
     inkscape:cy="560"
     inkscape:document-units="mm"
     inkscape:current-layer="layer1"
     showgrid="false"
     inkscape:window-width="1920"
     inkscape:window-height="1137"
     inkscape:window-x="1672"
     inkscape:window-y="9"
     inkscape:window-maximized="1" />
  <metadata
     id="metadata5">
    <rdf:RDF>
      <cc:Work
         rdf:about="">
        <dc:format>image/svg+xml</dc:format>
        <dc:type
           rdf:resource="http://purl.org/dc/dcmitype/StillImage" />
        <dc:title></dc:title>
      </cc:Work>
    </rdf:RDF>
  </metadata>
  <g
     inkscape:label="Layer 1"
     inkscape:groupmode="layer"
     id="layer1">
    <g
       aria-label="F"
       transform="scale(0.88672113,1.1277503)"
       style="font-style:normal;font-variant:normal;font-weight:100;font-stretch:normal;font-size:130.68457031px;line-height:1.25;font-family:'AR BERKLEY';-inkscape-font-specification:'AR BERKLEY, Thin';font-variant-ligatures:normal;font-variant-caps:normal;font-variant-numeric:normal;font-feature-settings:normal;text-align:start;letter-spacing:0px;word-spacing:0px;writing-mode:lr-tb;text-anchor:start;fill:#000000;fill-opacity:1;stroke:none;stroke-width:1.36129761"
       id="text817">
      <path
         d="m 109.65197,208.07791 q -5.61943,0 -10.324079,-1.30684 -7.056967,-1.96027 -7.056967,-6.27286 0,-7.97176 6.27286,-14.63667 5.880806,-6.14218 13.983246,-8.36382 l 3.13643,2.74438 0.78411,2.87506 q -2.22164,4.83533 -4.44328,9.67066 l 1.43753,4.70464 2.87507,1.30685 q 7.97175,-1.56822 14.89804,-9.14792 5.61943,-6.14218 10.84682,-16.20489 3.26711,-6.27286 7.31833,-16.59694 l -17.25036,-0.39205 q -1.56822,0 -3.13643,0 -1.43753,0 -2.87506,-0.13069 -4.18191,0 -6.92628,0.65343 -2.6137,0.65342 -5.61944,3.00574 l -1.56822,-0.78411 -0.65342,-1.96026 q 0.65342,-6.7956 6.7956,-10.32408 7.5797,-4.44328 24.43801,-4.44328 2.48301,0 6.66492,0.13068 4.31259,0.13069 5.75012,0.13069 l 15.29009,-38.42126 q -7.5797,0 -18.94926,-1.17617 -25.35281,-2.61369 -31.62567,-2.61369 -14.50598,0 -24.307326,2.09096 -17.119679,3.65916 -17.119679,12.6764 0,6.40354 5.358067,9.40929 4.57396,2.61369 9.14792,5.22738 0.26137,1.56822 0.522739,3.52848 0.261369,1.82959 0.261369,3.26712 l -1.6989,3.13643 -3.789852,1.17616 q -6.664913,-1.82958 -12.937773,-7.97176 -7.056966,-6.92628 -7.056966,-13.46051 0,-15.81283 19.994739,-26.00623 16.858312,-8.625181 34.892782,-8.625181 12.15366,0 25.09144,1.045476 13.06845,0.914792 27.0517,1.960269 14.11394,0.914792 24.30733,0.914792 1.82959,0.653423 2.61369,0.914792 l 1.04548,2.352322 q -0.52274,3.13643 -1.43753,6.01149 -0.78411,2.74438 -2.09095,5.22738 -1.43753,0.52274 -4.18191,1.04548 -2.74438,0.52274 -6.92628,0.52274 h -3.52849 q -3.78985,8.62518 -8.10244,18.81858 -4.18191,10.19339 -8.10244,19.86405 3.3978,0 5.22738,0.13069 8.88655,0.65342 9.01724,0.65342 3.92053,0 9.14792,-1.04548 7.44902,-1.43753 8.88655,-1.6989 l 2.22163,1.17616 0.26137,0.9148 q -1.30684,5.61943 -4.1819,10.84681 -3.00575,1.82959 -9.93203,2.48301 -6.92628,0.65342 -16.0742,0.65342 h -1.56822 q -2.483,0 -4.70464,0 -2.22164,0 -4.18191,-0.13068 -4.96601,11.36956 -12.15366,21.82432 -8.75587,12.67641 -18.16516,19.86406 -11.50024,8.75586 -22.8698,8.75586 z"
         style="font-style:normal;font-variant:normal;font-weight:100;font-stretch:normal;font-size:130.68457031px;font-family:'AR BERKLEY';-inkscape-font-specification:'AR BERKLEY, Thin';font-variant-ligatures:normal;font-variant-caps:normal;font-variant-numeric:normal;font-feature-settings:normal;text-align:start;writing-mode:lr-tb;text-anchor:start;stroke-width:1.36129761"
         id="path819"
         inkscape:connector-curvature="0" />
    </g>
    <g
       id="g824"
       style="font-style:normal;font-variant:normal;font-weight:100;font-stretch:normal;font-size:130.68457031px;line-height:1.25;font-family:'AR BERKLEY';-inkscape-font-specification:'AR BERKLEY, Thin';font-variant-ligatures:normal;font-variant-caps:normal;font-variant-numeric:normal;font-feature-settings:normal;text-align:start;letter-spacing:0px;word-spacing:0px;writing-mode:lr-tb;text-anchor:start;fill:#800000;fill-opacity:1;stroke:none;stroke-width:1.36129761"
       transform="matrix(0.88672113,0,0,1.1277503,4.2333335,2.6458334)"
       aria-label="F">
      <path
         inkscape:connector-curvature="0"
         id="path822"
         style="font-style:normal;font-variant:normal;font-weight:100;font-stretch:normal;font-size:130.68457031px;font-family:'AR BERKLEY';-inkscape-font-specification:'AR BERKLEY, Thin';font-variant-ligatures:normal;font-variant-caps:normal;font-variant-numeric:normal;font-feature-settings:normal;text-align:start;writing-mode:lr-tb;text-anchor:start;fill:#800000;stroke-width:1.36129761"
         d="m 109.65197,208.07791 q -5.61943,0 -10.324079,-1.30684 -7.056967,-1.96027 -7.056967,-6.27286 0,-7.97176 6.27286,-14.63667 5.880806,-6.14218 13.983246,-8.36382 l 3.13643,2.74438 0.78411,2.87506 q -2.22164,4.83533 -4.44328,9.67066 l 1.43753,4.70464 2.87507,1.30685 q 7.97175,-1.56822 14.89804,-9.14792 5.61943,-6.14218 10.84682,-16.20489 3.26711,-6.27286 7.31833,-16.59694 l -17.25036,-0.39205 q -1.56822,0 -3.13643,0 -1.43753,0 -2.87506,-0.13069 -4.18191,0 -6.92628,0.65343 -2.6137,0.65342 -5.61944,3.00574 l -1.56822,-0.78411 -0.65342,-1.96026 q 0.65342,-6.7956 6.7956,-10.32408 7.5797,-4.44328 24.43801,-4.44328 2.48301,0 6.66492,0.13068 4.31259,0.13069 5.75012,0.13069 l 15.29009,-38.42126 q -7.5797,0 -18.94926,-1.17617 -25.35281,-2.61369 -31.62567,-2.61369 -14.50598,0 -24.307326,2.09096 -17.119679,3.65916 -17.119679,12.6764 0,6.40354 5.358067,9.40929 4.57396,2.61369 9.14792,5.22738 0.26137,1.56822 0.522739,3.52848 0.261369,1.82959 0.261369,3.26712 l -1.6989,3.13643 -3.789852,1.17616 q -6.664913,-1.82958 -12.937773,-7.97176 -7.056966,-6.92628 -7.056966,-13.46051 0,-15.81283 19.994739,-26.00623 16.858312,-8.625181 34.892782,-8.625181 12.15366,0 25.09144,1.045476 13.06845,0.914792 27.0517,1.960269 14.11394,0.914792 24.30733,0.914792 1.82959,0.653423 2.61369,0.914792 l 1.04548,2.352322 q -0.52274,3.13643 -1.43753,6.01149 -0.78411,2.74438 -2.09095,5.22738 -1.43753,0.52274 -4.18191,1.04548 -2.74438,0.52274 -6.92628,0.52274 h -3.52849 q -3.78985,8.62518 -8.10244,18.81858 -4.18191,10.19339 -8.10244,19.86405 3.3978,0 5.22738,0.13069 8.88655,0.65342 9.01724,0.65342 3.92053,0 9.14792,-1.04548 7.44902,-1.43753 8.88655,-1.6989 l 2.22163,1.17616 0.26137,0.9148 q -1.30684,5.61943 -4.1819,10.84681 -3.00575,1.82959 -9.93203,2.48301 -6.92628,0.65342 -16.0742,0.65342 h -1.56822 q -2.483,0 -4.70464,0 -2.22164,0 -4.18191,-0.13068 -4.96601,11.36956 -12.15366,21.82432 -8.75587,12.67641 -18.16516,19.86406 -11.50024,8.75586 -22.8698,8.75586 z" />
    </g>
  </g>
</svg>
